ISO-10303-21;
HEADER;
FILE_DESCRIPTION (( 'STEP AP214' ),
    '1' );
FILE_NAME ('3522160KFT.STEP',
    '2024-04-26T04:01:10',
    ( '' ),
    ( '' ),
    'SwSTEP 2.0',
    'SolidWorks 2016',
    '' );
FILE_SCHEMA (( 'AUTOMOTIVE_DESIGN' ));
ENDSEC;

DATA;
#1 = EDGE_CURVE ( 'NONE', #336, #1319, #1308, .T. ) ;
#2 = LINE ( 'NONE', #359, #273 ) ;
#3 = ORIENTED_EDGE ( 'NONE', *, *, #1212, .F. ) ;
#4 = EDGE_CURVE ( 'NONE', #438, #717, #305, .T. ) ;
#5 = FILL_AREA_STYLE_COLOUR ( '', #836 ) ;
#6 = CARTESIAN_POINT ( 'NONE',  ( 3.174999999999999800, -0.4600000000000000200, -1.575000000000000000 ) ) ;
#7 = DIRECTION ( 'NONE',  ( -0.0000000000000000000, 1.000000000000000000, 0.0000000000000000000 ) ) ;
#8 = CARTESIAN_POINT ( 'NONE',  ( -2.589999999999999900, 0.4400000000000000000, -1.254999999999999900 ) ) ;
#9 = CARTESIAN_POINT ( 'NONE',  ( 3.064999999999999900, -0.4400000000000000000, 1.575000000000000000 ) ) ;
#10 = CARTESIAN_POINT ( 'NONE',  ( 0.0000000000000000000, 0.0000000000000000000, -1.575000000000000000 ) ) ;
#11 = AXIS2_PLACEMENT_3D ( 'NONE', #1002, #266, #891 ) ;
#12 = VERTEX_POINT ( 'NONE', #901 ) ;
#13 = VECTOR ( 'NONE', #1320, 1000.000000000000000 ) ;
#14 = ORIENTED_EDGE ( 'NONE', *, *, #206, .F. ) ;
#15 = ORIENTED_EDGE ( 'NONE', *, *, #1032, .F. ) ;
#16 = FACE_OUTER_BOUND ( 'NONE', #1342, .T. ) ;
#17 = ORIENTED_EDGE ( 'NONE', *, *, #889, .T. ) ;
#18 = VERTEX_POINT ( 'NONE', #74 ) ;
#19 = DIRECTION ( 'NONE',  ( 1.000000000000000000, 0.0000000000000000000, 0.0000000000000000000 ) ) ;
#20 = CARTESIAN_POINT ( 'NONE',  ( 3.085000000000000000, 0.4600000000000000200, -5.771519999999999800 ) ) ;
#21 = ORIENTED_EDGE ( 'NONE', *, *, #885, .T. ) ;
#22 = CARTESIAN_POINT ( 'NONE',  ( -3.064999999999999900, 0.4400000000000000000, 1.600000000000000100 ) ) ;
#23 = EDGE_CURVE ( 'NONE', #1090, #1120, #827, .T. ) ;
#24 = DIRECTION ( 'NONE',  ( 0.0000000000000000000, 0.0000000000000000000, 1.000000000000000000 ) ) ;
#25 = EDGE_CURVE ( 'NONE', #321, #650, #864, .T. ) ;
#26 = CARTESIAN_POINT ( 'NONE',  ( 2.890000000000000100, 0.5500000000000000400, 1.254999999999999900 ) ) ;
#27 = DIRECTION ( 'NONE',  ( 1.000000000000000000, 0.0000000000000000000, -0.0000000000000000000 ) ) ;
#28 = ORIENTED_EDGE ( 'NONE', *, *, #134, .F. ) ;
#29 = VECTOR ( 'NONE', #197, 1000.000000000000000 ) ;
#30 = VERTEX_POINT ( 'NONE', #55 ) ;
#31 = CYLINDRICAL_SURFACE ( 'NONE', #853, 0.08999999999999980200 ) ;
#32 = CARTESIAN_POINT ( 'NONE',  ( -2.589999999999999900, 0.4400000000000000000, 1.255000000000000100 ) ) ;
#33 = CARTESIAN_POINT ( 'NONE',  ( 2.589999999999999900, 0.5500000000000000400, 1.255000000000000100 ) ) ;
#34 = VECTOR ( 'NONE', #797, 1000.000000000000000 ) ;
#35 = DIRECTION ( 'NONE',  ( -0.0000000000000000000, 1.000000000000000000, 0.0000000000000000000 ) ) ;
#36 = AXIS2_PLACEMENT_3D ( 'NONE', #938, #1361, #616 ) ;
#37 = DIRECTION ( 'NONE',  ( 0.0000000000000000000, 0.0000000000000000000, -1.000000000000000000 ) ) ;
#38 = CARTESIAN_POINT ( 'NONE',  ( -2.890000000000000100, 0.5500000000000000400, -1.575000000000000000 ) ) ;
#39 = CARTESIAN_POINT ( 'NONE',  ( -3.064999999999999900, -0.4400000000000000000, -1.600000000000000100 ) ) ;
#40 = PLANE ( 'NONE',  #636 ) ;
#41 = EDGE_CURVE ( 'NONE', #396, #18, #1080, .T. ) ;
#42 = CYLINDRICAL_SURFACE ( 'NONE', #327, 0.09000000000000002400 ) ;
#43 = CARTESIAN_POINT ( 'NONE',  ( 2.890000000000000100, 0.4400000000000000000, 1.254999999999999900 ) ) ;
#44 = DIRECTION ( 'NONE',  ( 0.0000000000000000000, 0.0000000000000000000, 1.000000000000000000 ) ) ;
#45 = ORIENTED_EDGE ( 'NONE', *, *, #1212, .T. ) ;
#46 = LINE ( 'NONE', #686, #282 ) ;
#47 = EDGE_CURVE ( 'NONE', #475, #1286, #2, .T. ) ;
#48 = ORIENTED_EDGE ( 'NONE', *, *, #596, .F. ) ;
#49 = ORIENTED_EDGE ( 'NONE', *, *, #121, .F. ) ;
#50 = VECTOR ( 'NONE', #1181, 1000.000000000000000 ) ;
#51 = ORIENTED_EDGE ( 'NONE', *, *, #720, .F. ) ;
#52 = VERTEX_POINT ( 'NONE', #675 ) ;
#53 = DIRECTION ( 'NONE',  ( 1.000000000000000000, -0.0000000000000000000, 0.0000000000000000000 ) ) ;
#54 = AXIS2_PLACEMENT_3D ( 'NONE', #135, #657, #1300 ) ;
#55 = CARTESIAN_POINT ( 'NONE',  ( -1.465000000000000100, -0.5500000000000000400, 1.575000000000000000 ) ) ;
#56 = CARTESIAN_POINT ( 'NONE',  ( -3.064999999999999900, 0.4400000000000000000, 1.575000000000000000 ) ) ;
#57 = CARTESIAN_POINT ( 'NONE',  ( -3.085000000000000000, -0.4600000000000000200, -1.575000000000000000 ) ) ;
#58 = AXIS2_PLACEMENT_3D ( 'NONE', #1069, #239, #970 ) ;
#59 = VECTOR ( 'NONE', #1288, 1000.000000000000000 ) ;
#60 = VERTEX_POINT ( 'NONE', #570 ) ;
#61 = VERTEX_POINT ( 'NONE', #993 ) ;
#62 = LINE ( 'NONE', #942, #1139 ) ;
#63 = ORIENTED_EDGE ( 'NONE', *, *, #785, .T. ) ;
#64 = CLOSED_SHELL ( 'NONE', ( #184, #935, #407, #1140, #811, #618, #389, #1351, #208, #498, #195, #724, #598, #1131, #1247, #510, #1234, #402, #1037, #918, #927, #82, #307, #817, #828, #506, #712, #1250, #86, #1357, #293, #298, #614, #1348, #200, #1033, #1020, #718, #603, #97, #1148 ) ) ;
#65 = LINE ( 'NONE', #627, #826 ) ;
#66 = CARTESIAN_POINT ( 'NONE',  ( 1.465000000000000100, -0.4600000000000000200, -1.575000000000000000 ) ) ;
#67 =( LENGTH_UNIT ( ) NAMED_UNIT ( * ) SI_UNIT ( .MILLI., .METRE. ) );
#68 = DIRECTION ( 'NONE',  ( -1.000000000000000000, 0.0000000000000000000, 0.0000000000000000000 ) ) ;
#69 = EDGE_CURVE ( 'NONE', #575, #1157, #583, .T. ) ;
#70 = EDGE_CURVE ( 'NONE', #999, #629, #1334, .T. ) ;
#71 = DIRECTION ( 'NONE',  ( -0.0000000000000000000, -1.000000000000000000, 0.0000000000000000000 ) ) ;
#72 = VECTOR ( 'NONE', #1156, 1000.000000000000000 ) ;
#73 = ORIENTED_EDGE ( 'NONE', *, *, #206, .T. ) ;
#74 = CARTESIAN_POINT ( 'NONE',  ( 2.590000000000000300, 0.4400000000000000000, 1.255000000000000100 ) ) ;
#75 = LINE ( 'NONE', #1210, #315 ) ;
#76 = ORIENTED_EDGE ( 'NONE', *, *, #1117, .T. ) ;
#77 = ORIENTED_EDGE ( 'NONE', *, *, #556, .F. ) ;
#78 = LINE ( 'NONE', #870, #286 ) ;
#79 = VERTEX_POINT ( 'NONE', #1100 ) ;
#80 = FACE_OUTER_BOUND ( 'NONE', #455, .T. ) ;
#81 = ORIENTED_EDGE ( 'NONE', *, *, #1146, .F. ) ;
#82 = ADVANCED_FACE ( 'NONE', ( #766 ), #673, .F. ) ;
#83 = SURFACE_STYLE_USAGE ( .BOTH. , #706 ) ;
#84 = EDGE_CURVE ( 'NONE', #12, #1160, #1301, .T. ) ;
#85 = PLANE ( 'NONE',  #292 ) ;
#86 = ADVANCED_FACE ( 'NONE', ( #247 ), #670, .F. ) ;
#87 = CYLINDRICAL_SURFACE ( 'NONE', #773, 0.08999999999999980200 ) ;
#88 = ORIENTED_EDGE ( 'NONE', *, *, #459, .T. ) ;
#89 = EDGE_CURVE ( 'NONE', #904, #821, #732, .T. ) ;
#90 = EDGE_LOOP ( 'NONE', ( #709, #317, #745, #318 ) ) ;
#91 = LINE ( 'NONE', #9, #963 ) ;
#92 = DIRECTION ( 'NONE',  ( 1.000000000000000000, 0.0000000000000000000, 0.0000000000000000000 ) ) ;
#93 = ORIENTED_EDGE ( 'NONE', *, *, #344, .T. ) ;
#94 = VECTOR ( 'NONE', #1147, 1000.000000000000000 ) ;
#95 = ORIENTED_EDGE ( 'NONE', *, *, #485, .T. ) ;
#96 = CARTESIAN_POINT ( 'NONE',  ( 2.890000000000000100, 0.5500000000000000400, -1.254999999999999900 ) ) ;
#97 = ADVANCED_FACE ( 'NONE', ( #179 ), #699, .T. ) ;
#98 = DIRECTION ( 'NONE',  ( -0.0000000000000000000, -0.0000000000000000000, -1.000000000000000000 ) ) ;
#99 = PLANE ( 'NONE',  #36 ) ;
#100 = CARTESIAN_POINT ( 'NONE',  ( -3.064999999999999900, -0.4400000000000000000, 1.600000000000000100 ) ) ;
#101 = AXIS2_PLACEMENT_3D ( 'NONE', #1242, #505, #1132 ) ;
#102 = DIRECTION ( 'NONE',  ( 1.000000000000000000, 0.0000000000000000000, 0.0000000000000000000 ) ) ;
#103 = CARTESIAN_POINT ( 'NONE',  ( 2.890000000000000100, 0.5500000000000000400, 1.575000000000000000 ) ) ;
#104 = DIRECTION ( 'NONE',  ( 0.0000000000000000000, 0.0000000000000000000, -1.000000000000000000 ) ) ;
#105 = LINE ( 'NONE', #1149, #659 ) ;
#106 = ORIENTED_EDGE ( 'NONE', *, *, #1243, .T. ) ;
#107 = VECTOR ( 'NONE', #796, 1000.000000000000000 ) ;
#108 = CARTESIAN_POINT ( 'NONE',  ( 1.375000000000000000, -0.5500000000000000400, -1.575000000000000000 ) ) ;
#109 = EDGE_LOOP ( 'NONE', ( #679, #432, #533, #242 ) ) ;
#110 = ORIENTED_EDGE ( 'NONE', *, *, #1323, .F. ) ;
#111 = LINE ( 'NONE', #32, #1189 ) ;
#112 = EDGE_CURVE ( 'NONE', #52, #1095, #1261, .T. ) ;
#113 = LINE ( 'NONE', #689, #1194 ) ;
#114 = ORIENTED_EDGE ( 'NONE', *, *, #277, .T. ) ;
#115 = EDGE_CURVE ( 'NONE', #1138, #839, #453, .T. ) ;
#116 = CARTESIAN_POINT ( 'NONE',  ( 2.575000000000000200, 0.5500000000000000400, -1.415000000000000000 ) ) ;
#117 = CARTESIAN_POINT ( 'NONE',  ( 0.0000000000000000000, 0.0000000000000000000, 0.0000000000000000000 ) ) ;
#118 = DIRECTION ( 'NONE',  ( 0.0000000000000000000, -0.0000000000000000000, -1.000000000000000000 ) ) ;
#119 = CARTESIAN_POINT ( 'NONE',  ( 3.174999999999999800, 0.5500000000000000400, -1.575000000000000000 ) ) ;
#120 = AXIS2_PLACEMENT_3D ( 'NONE', #1327, #221, #415 ) ;
#121 = EDGE_CURVE ( 'NONE', #245, #829, #984, .T. ) ;
#122 = VECTOR ( 'NONE', #660, 1000.000000000000000 ) ;
#123 = EDGE_LOOP ( 'NONE', ( #95, #943, #1332, #1097 ) ) ;
#124 = ORIENTED_EDGE ( 'NONE', *, *, #23, .T. ) ;
#125 = FACE_OUTER_BOUND ( 'NONE', #332, .T. ) ;
#126 = VERTEX_POINT ( 'NONE', #988 ) ;
#127 = VECTOR ( 'NONE', #306, 1000.000000000000000 ) ;
#128 = CARTESIAN_POINT ( 'NONE',  ( -2.890000000000000100, 0.5500000000000000400, -1.254999999999999900 ) ) ;
#129 = VERTEX_POINT ( 'NONE', #275 ) ;
#130 = SURFACE_STYLE_USAGE ( .BOTH. , #857 ) ;
#131 =( NAMED_UNIT ( * ) PLANE_ANGLE_UNIT ( ) SI_UNIT ( $, .RADIAN. ) );
#132 = CARTESIAN_POINT ( 'NONE',  ( -3.174999999999999800, 0.5500000000000000400, 1.575000000000000000 ) ) ;
#133 = CARTESIAN_POINT ( 'NONE',  ( 1.375000000000000000, -0.4400000000000000000, 1.600000000000000100 ) ) ;
#134 = EDGE_CURVE ( 'NONE', #417, #692, #113, .T. ) ;
#135 = CARTESIAN_POINT ( 'NONE',  ( 0.0000000000000000000, 0.0000000000000000000, 1.575000000000000000 ) ) ;
#136 = DIRECTION ( 'NONE',  ( -0.0000000000000000000, -1.000000000000000000, 0.0000000000000000000 ) ) ;
#137 = CARTESIAN_POINT ( 'NONE',  ( -2.575000000000000200, 0.5500000000000000400, 1.415000000000000000 ) ) ;
#138 = EDGE_CURVE ( 'NONE', #564, #717, #420, .T. ) ;
#139 = LINE ( 'NONE', #787, #1216 ) ;
#140 = ORIENTED_EDGE ( 'NONE', *, *, #1051, .F. ) ;
#141 = VECTOR ( 'NONE', #915, 1000.000000000000000 ) ;
#142 = CARTESIAN_POINT ( 'NONE',  ( -3.174999999999999800, -0.5500000000000000400, -1.575000000000000000 ) ) ;
#143 = EDGE_LOOP ( 'NONE', ( #1335, #93, #631, #159 ) ) ;
#144 = ORIENTED_EDGE ( 'NONE', *, *, #531, .T. ) ;
#145 = LINE ( 'NONE', #132, #665 ) ;
#146 = DIRECTION ( 'NONE',  ( 1.000000000000000000, 0.0000000000000000000, -0.0000000000000000000 ) ) ;
#147 = EDGE_LOOP ( 'NONE', ( #487, #1096, #1024, #1192, #1061, #858, #578, #634, #1256, #270, #782 ) ) ;
#148 = VECTOR ( 'NONE', #576, 1000.000000000000000 ) ;
#149 = ORIENTED_EDGE ( 'NONE', *, *, #508, .F. ) ;
#150 = AXIS2_PLACEMENT_3D ( 'NONE', #1101, #998, #264 ) ;
#151 = CARTESIAN_POINT ( 'NONE',  ( 3.064999999999999900, -0.4400000000000000000, 1.600000000000000100 ) ) ;
#152 = CARTESIAN_POINT ( 'NONE',  ( 3.064999999999999900, -0.4400000000000000000, 1.575000000000000000 ) ) ;
#153 = DIRECTION ( 'NONE',  ( -0.0000000000000000000, 0.0000000000000000000, 1.000000000000000000 ) ) ;
#154 = CARTESIAN_POINT ( 'NONE',  ( -3.064999999999999900, 0.4400000000000000000, -1.600000000000000100 ) ) ;
#155 = AXIS2_PLACEMENT_3D ( 'NONE', #1027, #390, #1130 ) ;
#156 = CARTESIAN_POINT ( 'NONE',  ( 3.064999999999999900, -0.4400000000000000000, -1.575000000000000000 ) ) ;
#157 = VECTOR ( 'NONE', #879, 1000.000000000000000 ) ;
#158 = EDGE_CURVE ( 'NONE', #1163, #747, #382, .T. ) ;
#159 = ORIENTED_EDGE ( 'NONE', *, *, #1103, .T. ) ;
#160 = ORIENTED_EDGE ( 'NONE', *, *, #1336, .T. ) ;
#161 = FACE_BOUND ( 'NONE', #233, .T. ) ;
#162 = ORIENTED_EDGE ( 'NONE', *, *, #112, .T. ) ;
#163 = ORIENTED_EDGE ( 'NONE', *, *, #889, .F. ) ;
#164 = VECTOR ( 'NONE', #509, 1000.000000000000000 ) ;
#165 = ORIENTED_EDGE ( 'NONE', *, *, #1146, .T. ) ;
#166 = PLANE ( 'NONE',  #150 ) ;
#167 = EDGE_CURVE ( 'NONE', #501, #188, #1224, .T. ) ;
#168 = APPLICATION_CONTEXT ( 'automotive_design' ) ;
#169 =( LENGTH_UNIT ( ) NAMED_UNIT ( * ) SI_UNIT ( .MILLI., .METRE. ) );
#170 = AXIS2_PLACEMENT_3D ( 'NONE', #731, #933, #202 ) ;
#171 = FACE_OUTER_BOUND ( 'NONE', #876, .T. ) ;
#172 = EDGE_LOOP ( 'NONE', ( #715, #258, #483, #807 ) ) ;
#173 = VECTOR ( 'NONE', #798, 1000.000000000000000 ) ;
#174 = PLANE ( 'NONE',  #1225 ) ;
#175 = EDGE_LOOP ( 'NONE', ( #215, #843, #995, #1312 ) ) ;
#176 = ORIENTED_EDGE ( 'NONE', *, *, #69, .T. ) ;
#177 = LINE ( 'NONE', #854, #1260 ) ;
#178 = CARTESIAN_POINT ( 'NONE',  ( 3.174999999999999800, 0.5500000000000000400, -1.415000000000000000 ) ) ;
#179 = FACE_OUTER_BOUND ( 'NONE', #968, .T. ) ;
#180 = ORIENTED_EDGE ( 'NONE', *, *, #1267, .T. ) ;
#181 = EDGE_CURVE ( 'NONE', #692, #465, #632, .T. ) ;
#182 = EDGE_CURVE ( 'NONE', #695, #1238, #913, .T. ) ;
#183 = CARTESIAN_POINT ( 'NONE',  ( 3.064999999999999900, 0.4400000000000000000, 1.600000000000000100 ) ) ;
#184 = ADVANCED_FACE ( 'NONE', ( #80 ), #1230, .T. ) ;
#185 = DIRECTION ( 'NONE',  ( 0.0000000000000000000, 0.0000000000000000000, 1.000000000000000000 ) ) ;
#186 =( NAMED_UNIT ( * ) PLANE_ANGLE_UNIT ( ) SI_UNIT ( $, .RADIAN. ) );
#187 = CIRCLE ( 'NONE', #220, 0.08999999999999980200 ) ;
#188 = VERTEX_POINT ( 'NONE', #1018 ) ;
#189 = ORIENTED_EDGE ( 'NONE', *, *, #577, .F. ) ;
#190 = VECTOR ( 'NONE', #964, 1000.000000000000000 ) ;
#191 = EDGE_CURVE ( 'NONE', #661, #1163, #781, .T. ) ;
#192 = ORIENTED_EDGE ( 'NONE', *, *, #863, .F. ) ;
#193 = CYLINDRICAL_SURFACE ( 'NONE', #428, 0.09000000000000002400 ) ;
#194 = VERTEX_POINT ( 'NONE', #814 ) ;
#195 = ADVANCED_FACE ( 'NONE', ( #1029 ), #85, .F. ) ;
#196 = UNCERTAINTY_MEASURE_WITH_UNIT (LENGTH_MEASURE( 1.000000000000000100E-005 ), #847, 'distance_accuracy_value', 'NONE');
#197 = DIRECTION ( 'NONE',  ( 0.0000000000000000000, 0.0000000000000000000, 1.000000000000000000 ) ) ;
#198 = DIRECTION ( 'NONE',  ( -1.000000000000000000, 0.0000000000000000000, 0.0000000000000000000 ) ) ;
#199 = AXIS2_PLACEMENT_3D ( 'NONE', #1303, #770, #146 ) ;
#200 = ADVANCED_FACE ( 'NONE', ( #500 ), #193, .T. ) ;
#201 = CARTESIAN_POINT ( 'NONE',  ( 2.890000000000000100, 0.5500000000000000400, -1.254999999999999900 ) ) ;
#202 = DIRECTION ( 'NONE',  ( 0.0000000000000000000, 0.0000000000000000000, 1.000000000000000000 ) ) ;
#203 = CARTESIAN_POINT ( 'NONE',  ( -2.575000000000000200, 0.4400000000000000000, 1.415000000000000000 ) ) ;
#204 = VECTOR ( 'NONE', #868, 1000.000000000000000 ) ;
#205 = ORIENTED_EDGE ( 'NONE', *, *, #235, .T. ) ;
#206 = EDGE_CURVE ( 'NONE', #644, #735, #469, .T. ) ;
#207 = LINE ( 'NONE', #1340, #979 ) ;
#208 = ADVANCED_FACE ( 'NONE', ( #231 ), #818, .F. ) ;
#209 = ORIENTED_EDGE ( 'NONE', *, *, #785, .F. ) ;
#210 = VECTOR ( 'NONE', #430, 1000.000000000000000 ) ;
#211 = EDGE_CURVE ( 'NONE', #18, #514, #1000, .T. ) ;
#212 = VECTOR ( 'NONE', #1107, 1000.000000000000000 ) ;
#213 = CARTESIAN_POINT ( 'NONE',  ( -2.589999999999999900, 0.5500000000000000400, 1.575000000000000000 ) ) ;
#214 = CARTESIAN_POINT ( 'NONE',  ( -2.890000000000000100, 0.5500000000000000400, 1.255000000000000100 ) ) ;
#215 = ORIENTED_EDGE ( 'NONE', *, *, #834, .T. ) ;
#216 = CARTESIAN_POINT ( 'NONE',  ( -3.085000000000000000, 0.4600000000000000200, 5.771519999999999800 ) ) ;
#217 =( NAMED_UNIT ( * ) PLANE_ANGLE_UNIT ( ) SI_UNIT ( $, .RADIAN. ) );
#218 = DIRECTION ( 'NONE',  ( -0.0000000000000000000, 1.000000000000000000, 0.0000000000000000000 ) ) ;
#219 = DIRECTION ( 'NONE',  ( -1.000000000000000000, 0.0000000000000000000, -0.0000000000000000000 ) ) ;
#220 = AXIS2_PLACEMENT_3D ( 'NONE', #772, #44, #669 ) ;
#221 = DIRECTION ( 'NONE',  ( -0.0000000000000000000, -0.0000000000000000000, -1.000000000000000000 ) ) ;
#222 = CARTESIAN_POINT ( 'NONE',  ( 2.575000000000000200, 0.5500000000000000400, 1.415000000000000000 ) ) ;
#223 = CARTESIAN_POINT ( 'NONE',  ( 0.0000000000000000000, 0.4400000000000000000, -1.575000000000000000 ) ) ;
#224 = LINE ( 'NONE', #569, #1021 ) ;
#225 = ORIENTED_EDGE ( 'NONE', *, *, #1022, .F. ) ;
#226 = ORIENTED_EDGE ( 'NONE', *, *, #399, .F. ) ;
#227 = VECTOR ( 'NONE', #334, 1000.000000000000000 ) ;
#228 = DIRECTION ( 'NONE',  ( 0.0000000000000000000, -1.000000000000000000, 0.0000000000000000000 ) ) ;
#229 = AXIS2_PLACEMENT_3D ( 'NONE', #522, #1258, #621 ) ;
#230 = ORIENTED_EDGE ( 'NONE', *, *, #115, .T. ) ;
#231 = FACE_OUTER_BOUND ( 'NONE', #696, .T. ) ;
#232 = DIRECTION ( 'NONE',  ( -0.0000000000000000000, -1.000000000000000000, 0.0000000000000000000 ) ) ;
#233 = EDGE_LOOP ( 'NONE', ( #1127, #1205, #1122, #1082 ) ) ;
#234 = ORIENTED_EDGE ( 'NONE', *, *, #672, .T. ) ;
#235 = EDGE_CURVE ( 'NONE', #1283, #1195, #748, .T. ) ;
#236 = CARTESIAN_POINT ( 'NONE',  ( 0.0000000000000000000, 0.4400000000000000000, 1.575000000000000000 ) ) ;
#237 = CARTESIAN_POINT ( 'NONE',  ( 2.590000000000000300, 0.4400000000000000000, -1.254999999999999900 ) ) ;
#238 = EDGE_CURVE ( 'NONE', #610, #336, #716, .T. ) ;
#239 = DIRECTION ( 'NONE',  ( 1.000000000000000000, 0.0000000000000000000, 0.0000000000000000000 ) ) ;
#240 = FILL_AREA_STYLE ('',( #548 ) ) ;
#241 = DIRECTION ( 'NONE',  ( -1.000000000000000000, 0.0000000000000000000, -0.0000000000000000000 ) ) ;
#242 = ORIENTED_EDGE ( 'NONE', *, *, #320, .T. ) ;
#243 = LINE ( 'NONE', #394, #1044 ) ;
#244 = ORIENTED_EDGE ( 'NONE', *, *, #255, .T. ) ;
#245 = VERTEX_POINT ( 'NONE', #203 ) ;
#246 = LINE ( 'NONE', #22, #764 ) ;
#247 = FACE_OUTER_BOUND ( 'NONE', #256, .T. ) ;
#248 = ORIENTED_EDGE ( 'NONE', *, *, #504, .F. ) ;
#249 = CARTESIAN_POINT ( 'NONE',  ( 2.890000000000000100, 0.4400000000000000000, -1.254999999999999900 ) ) ;
#250 = CARTESIAN_POINT ( 'NONE',  ( -3.064999999999999900, -0.4400000000000000000, 1.600000000000000100 ) ) ;
#251 = CARTESIAN_POINT ( 'NONE',  ( 3.064999999999999900, 0.4400000000000000000, 1.600000000000000100 ) ) ;
#252 = DIRECTION ( 'NONE',  ( 1.000000000000000000, 0.0000000000000000000, 0.0000000000000000000 ) ) ;
#253 = EDGE_CURVE ( 'NONE', #710, #262, #400, .T. ) ;
#254 = PLANE ( 'NONE',  #476 ) ;
#255 = EDGE_CURVE ( 'NONE', #30, #647, #684, .T. ) ;
#256 = EDGE_LOOP ( 'NONE', ( #914, #412, #791, #539, #775, #908, #1015, #288 ) ) ;
#257 = LINE ( 'NONE', #682, #13 ) ;
#258 = ORIENTED_EDGE ( 'NONE', *, *, #41, .T. ) ;
#259 = LINE ( 'NONE', #969, #779 ) ;
#260 = ORIENTED_EDGE ( 'NONE', *, *, #902, .T. ) ;
#261 = VERTEX_POINT ( 'NONE', #515 ) ;
#262 = VERTEX_POINT ( 'NONE', #823 ) ;
#263 = EDGE_CURVE ( 'NONE', #777, #904, #367, .T. ) ;
#264 = DIRECTION ( 'NONE',  ( 0.0000000000000000000, 0.0000000000000000000, 1.000000000000000000 ) ) ;
#265 = DIRECTION ( 'NONE',  ( -0.0000000000000000000, -0.0000000000000000000, -1.000000000000000000 ) ) ;
#266 = DIRECTION ( 'NONE',  ( -1.000000000000000000, 0.0000000000000000000, 0.0000000000000000000 ) ) ;
#267 = CARTESIAN_POINT ( 'NONE',  ( -2.575000000000000200, 0.4400000000000000000, 1.600000000000000100 ) ) ;
#268 = VERTEX_POINT ( 'NONE', #617 ) ;
#269 = CIRCLE ( 'NONE', #101, 0.08999999999999980200 ) ;
#270 = ORIENTED_EDGE ( 'NONE', *, *, #435, .F. ) ;
#271 = LINE ( 'NONE', #1165, #517 ) ;
#272 = DIRECTION ( 'NONE',  ( 1.000000000000000000, -0.0000000000000000000, 0.0000000000000000000 ) ) ;
#273 = VECTOR ( 'NONE', #1198, 1000.000000000000000 ) ;
#274 = CARTESIAN_POINT ( 'NONE',  ( -2.575000000000000200, 0.5500000000000000400, 1.415000000000000000 ) ) ;
#275 = CARTESIAN_POINT ( 'NONE',  ( 3.064999999999999900, -0.4400000000000000000, 1.575000000000000000 ) ) ;
#276 = EDGE_CURVE ( 'NONE', #1120, #1160, #437, .T. ) ;
#277 = EDGE_CURVE ( 'NONE', #650, #1157, #648, .T. ) ;
#278 = DIRECTION ( 'NONE',  ( -1.000000000000000000, 0.0000000000000000000, 0.0000000000000000000 ) ) ;
#279 = DIRECTION ( 'NONE',  ( -0.0000000000000000000, -0.0000000000000000000, 1.000000000000000000 ) ) ;
#280 = AXIS2_PLACEMENT_3D ( 'NONE', #360, #674, #1314 ) ;
#281 = VERTEX_POINT ( 'NONE', #410 ) ;
#282 = VECTOR ( 'NONE', #887, 1000.000000000000000 ) ;
#283 = DIRECTION ( 'NONE',  ( 0.0000000000000000000, -1.000000000000000000, -0.0000000000000000000 ) ) ;
#284 = EDGE_LOOP ( 'NONE', ( #480, #861, #384, #873 ) ) ;
#285 = ORIENTED_EDGE ( 'NONE', *, *, #1053, .F. ) ;
#286 = VECTOR ( 'NONE', #451, 1000.000000000000000 ) ;
#287 = FILL_AREA_STYLE_COLOUR ( '', #594 ) ;
#288 = ORIENTED_EDGE ( 'NONE', *, *, #69, .F. ) ;
#289 = ORIENTED_EDGE ( 'NONE', *, *, #651, .F. ) ;
#290 = ORIENTED_EDGE ( 'NONE', *, *, #488, .T. ) ;
#291 = CARTESIAN_POINT ( 'NONE',  ( 0.0000000000000000000, 0.0000000000000000000, -1.575000000000000000 ) ) ;
#292 = AXIS2_PLACEMENT_3D ( 'NONE', #602, #921, #295 ) ;
#293 = ADVANCED_FACE ( 'NONE', ( #1206 ), #1049, .T. ) ;
#294 = EDGE_CURVE ( 'NONE', #245, #61, #337, .T. ) ;
#295 = DIRECTION ( 'NONE',  ( 0.0000000000000000000, 0.0000000000000000000, -1.000000000000000000 ) ) ;
#296 = DIRECTION ( 'NONE',  ( -1.000000000000000000, -0.0000000000000000000, -0.0000000000000000000 ) ) ;
#297 = EDGE_CURVE ( 'NONE', #777, #1238, #1176, .T. ) ;
#298 = ADVANCED_FACE ( 'NONE', ( #581 ), #31, .T. ) ;
#299 = CARTESIAN_POINT ( 'NONE',  ( -3.064999999999999900, 0.4400000000000000000, 1.254999999999999900 ) ) ;
#300 = COLOUR_RGB ( '',0.7921568627450980000, 0.8196078431372548800, 0.9333333333333333500 ) ;
#301 = ORIENTED_EDGE ( 'NONE', *, *, #676, .T. ) ;
#302 = FACE_OUTER_BOUND ( 'NONE', #1344, .T. ) ;
#303 = ORIENTED_EDGE ( 'NONE', *, *, #1323, .T. ) ;
#304 = LINE ( 'NONE', #424, #862 ) ;
#305 = LINE ( 'NONE', #1202, #34 ) ;
#306 = DIRECTION ( 'NONE',  ( 1.000000000000000000, -0.0000000000000000000, 0.0000000000000000000 ) ) ;
#307 = ADVANCED_FACE ( 'NONE', ( #612 ), #835, .T. ) ;
#308 = DIRECTION ( 'NONE',  ( 1.000000000000000000, 0.0000000000000000000, -0.0000000000000000000 ) ) ;
#309 = FILL_AREA_STYLE ('',( #5 ) ) ;
#310 = CARTESIAN_POINT ( 'NONE',  ( 2.890000000000000100, 0.5500000000000000400, 1.575000000000000000 ) ) ;
#311 = CARTESIAN_POINT ( 'NONE',  ( -2.575000000000000200, 0.4400000000000000000, 1.415000000000000000 ) ) ;
#312 = CARTESIAN_POINT ( 'NONE',  ( 3.174999999999999800, 0.4600000000000000200, -1.575000000000000000 ) ) ;
#313 = VERTEX_POINT ( 'NONE', #737 ) ;
#314 = EDGE_CURVE ( 'NONE', #1158, #726, #65, .T. ) ;
#315 = VECTOR ( 'NONE', #371, 1000.000000000000000 ) ;
#316 = DIRECTION ( 'NONE',  ( -0.0000000000000000000, 0.0000000000000000000, 1.000000000000000000 ) ) ;
#317 = ORIENTED_EDGE ( 'NONE', *, *, #369, .F. ) ;
#318 = ORIENTED_EDGE ( 'NONE', *, *, #813, .F. ) ;
#319 = LINE ( 'NONE', #26, #1026 ) ;
#320 = EDGE_CURVE ( 'NONE', #925, #475, #304, .T. ) ;
#321 = VERTEX_POINT ( 'NONE', #952 ) ;
#322 = PRESENTATION_STYLE_ASSIGNMENT (( #83 ) ) ;
#323 = CARTESIAN_POINT ( 'NONE',  ( 0.0000000000000000000, -0.4400000000000000000, 1.600000000000000100 ) ) ;
#324 = VERTEX_POINT ( 'NONE', #635 ) ;
#325 = APPLICATION_PROTOCOL_DEFINITION ( 'draft international standard', 'automotive_design', 1998, #168 ) ;
#326 = CARTESIAN_POINT ( 'NONE',  ( 3.085000000000000000, -0.5500000000000000400, -1.575000000000000000 ) ) ;
#327 = AXIS2_PLACEMENT_3D ( 'NONE', #1275, #623, #1352 ) ;
#328 = CARTESIAN_POINT ( 'NONE',  ( 1.375000000000000000, -0.4400000000000000000, 1.575000000000000000 ) ) ;
#329 = DIRECTION ( 'NONE',  ( 0.0000000000000000000, 0.0000000000000000000, 1.000000000000000000 ) ) ;
#330 = LINE ( 'NONE', #442, #59 ) ;
#331 = ORIENTED_EDGE ( 'NONE', *, *, #361, .T. ) ;
#332 = EDGE_LOOP ( 'NONE', ( #499, #960, #996, #803, #512, #162, #401, #1184, #209, #846, #928, #48, #248, #880, #1237, #1277, #285, #786, #789, #931 ) ) ;
#333 = LINE ( 'NONE', #310, #579 ) ;
#334 = DIRECTION ( 'NONE',  ( -1.000000000000000000, -0.0000000000000000000, -0.0000000000000000000 ) ) ;
#335 = AXIS2_PLACEMENT_3D ( 'NONE', #456, #557, #1306 ) ;
#336 = VERTEX_POINT ( 'NONE', #116 ) ;
#337 = LINE ( 'NONE', #311, #897 ) ;
#338 = CARTESIAN_POINT ( 'NONE',  ( 3.064999999999999900, 0.4400000000000000000, -1.600000000000000100 ) ) ;
#339 = CARTESIAN_POINT ( 'NONE',  ( 2.575000000000000200, 0.4400000000000000000, 1.600000000000000100 ) ) ;
#340 = DIRECTION ( 'NONE',  ( 0.0000000000000000000, 0.0000000000000000000, 1.000000000000000000 ) ) ;
#341 = EDGE_CURVE ( 'NONE', #313, #925, #552, .T. ) ;
#342 = DIRECTION ( 'NONE',  ( 0.0000000000000000000, -1.000000000000000000, -0.0000000000000000000 ) ) ;
#343 = DIRECTION ( 'NONE',  ( 0.0000000000000000000, 0.0000000000000000000, 1.000000000000000000 ) ) ;
#344 = EDGE_CURVE ( 'NONE', #261, #79, #1360, .T. ) ;
#345 = ORIENTED_EDGE ( 'NONE', *, *, #47, .F. ) ;
#346 = FACE_OUTER_BOUND ( 'NONE', #109, .T. ) ;
#347 = PLANE ( 'NONE',  #490 ) ;
#348 = ORIENTED_EDGE ( 'NONE', *, *, #1336, .F. ) ;
#349 = FACE_OUTER_BOUND ( 'NONE', #1137, .T. ) ;
#350 = ORIENTED_EDGE ( 'NONE', *, *, #528, .T. ) ;
#351 = ORIENTED_EDGE ( 'NONE', *, *, #1296, .T. ) ;
#352 = VECTOR ( 'NONE', #37, 1000.000000000000000 ) ;
#353 = EDGE_LOOP ( 'NONE', ( #88, #1203, #77, #205 ) ) ;
#354 = VECTOR ( 'NONE', #1005, 1000.000000000000000 ) ;
#355 = ORIENTED_EDGE ( 'NONE', *, *, #1347, .F. ) ;
#356 = DIRECTION ( 'NONE',  ( 0.0000000000000000000, 0.0000000000000000000, -1.000000000000000000 ) ) ;
#357 = DIRECTION ( 'NONE',  ( 0.0000000000000000000, -0.0000000000000000000, -1.000000000000000000 ) ) ;
#358 = DIRECTION ( 'NONE',  ( 1.000000000000000000, 0.0000000000000000000, 0.0000000000000000000 ) ) ;
#359 = CARTESIAN_POINT ( 'NONE',  ( 2.890000000000000100, 0.5500000000000000400, -1.254999999999999900 ) ) ;
#360 = CARTESIAN_POINT ( 'NONE',  ( 3.064999999999999900, 0.4400000000000000000, 1.600000000000000100 ) ) ;
#361 = EDGE_CURVE ( 'NONE', #735, #1158, #271, .T. ) ;
#362 = VECTOR ( 'NONE', #444, 1000.000000000000000 ) ;
#363 = VERTEX_POINT ( 'NONE', #426 ) ;
#364 = ORIENTED_EDGE ( 'NONE', *, *, #1103, .F. ) ;
#365 = LINE ( 'NONE', #1353, #788 ) ;
#366 = ORIENTED_EDGE ( 'NONE', *, *, #1232, .F. ) ;
#367 = LINE ( 'NONE', #1251, #94 ) ;
#368 = DIRECTION ( 'NONE',  ( 0.0000000000000000000, 0.0000000000000000000, 1.000000000000000000 ) ) ;
#369 = EDGE_CURVE ( 'NONE', #650, #703, #792, .T. ) ;
#370 = ORIENTED_EDGE ( 'NONE', *, *, #435, .T. ) ;
#371 = DIRECTION ( 'NONE',  ( -1.000000000000000000, -0.0000000000000000000, -0.0000000000000000000 ) ) ;
#372 = CARTESIAN_POINT ( 'NONE',  ( 2.589999999999999900, 0.5500000000000000400, -1.254999999999999900 ) ) ;
#373 = AXIS2_PLACEMENT_3D ( 'NONE', #920, #708, #1349 ) ;
#374 = CARTESIAN_POINT ( 'NONE',  ( 2.890000000000000100, 0.5500000000000000400, 1.254999999999999900 ) ) ;
#375 = LINE ( 'NONE', #1150, #72 ) ;
#376 = ORIENTED_EDGE ( 'NONE', *, *, #255, .F. ) ;
#377 = LINE ( 'NONE', #372, #838 ) ;
#378 = ORIENTED_EDGE ( 'NONE', *, *, #1051, .T. ) ;
#379 = ORIENTED_EDGE ( 'NONE', *, *, #276, .T. ) ;
#380 = LINE ( 'NONE', #972, #948 ) ;
#381 = ORIENTED_EDGE ( 'NONE', *, *, #1118, .T. ) ;
#382 = CIRCLE ( 'NONE', #954, 0.08999999999999980200 ) ;
#383 = CARTESIAN_POINT ( 'NONE',  ( -2.890000000000000100, 0.4400000000000000000, 1.600000000000000100 ) ) ;
#384 = ORIENTED_EDGE ( 'NONE', *, *, #541, .F. ) ;
#385 = EDGE_CURVE ( 'NONE', #52, #999, #246, .T. ) ;
#386 = EDGE_CURVE ( 'NONE', #1058, #1286, #1046, .T. ) ;
#387 = CARTESIAN_POINT ( 'NONE',  ( -2.890000000000000100, 0.5500000000000000400, 1.575000000000000000 ) ) ;
#388 = CARTESIAN_POINT ( 'NONE',  ( 3.174999999999999800, 0.5500000000000000400, 1.575000000000000000 ) ) ;
#389 = ADVANCED_FACE ( 'NONE', ( #1333 ), #641, .F. ) ;
#390 = DIRECTION ( 'NONE',  ( 0.0000000000000000000, 1.000000000000000000, -0.0000000000000000000 ) ) ;
#391 = AXIS2_PLACEMENT_3D ( 'NONE', #96, #272, #425 ) ;
#392 = EDGE_CURVE ( 'NONE', #703, #261, #730, .T. ) ;
#393 = LINE ( 'NONE', #757, #1135 ) ;
#394 = CARTESIAN_POINT ( 'NONE',  ( -2.589999999999999900, 0.4400000000000000000, 1.600000000000000100 ) ) ;
#395 = ORIENTED_EDGE ( 'NONE', *, *, #361, .F. ) ;
#396 = VERTEX_POINT ( 'NONE', #237 ) ;
#397 = CYLINDRICAL_SURFACE ( 'NONE', #971, 0.08999999999999980200 ) ;
#398 = ORIENTED_EDGE ( 'NONE', *, *, #554, .T. ) ;
#399 = EDGE_CURVE ( 'NONE', #1050, #951, #177, .T. ) ;
#400 = LINE ( 'NONE', #721, #127 ) ;
#401 = ORIENTED_EDGE ( 'NONE', *, *, #902, .F. ) ;
#402 = ADVANCED_FACE ( 'NONE', ( #1012 ), #545, .T. ) ;
#403 = CARTESIAN_POINT ( 'NONE',  ( -3.064999999999999900, 0.4400000000000000000, -1.254999999999999900 ) ) ;
#404 = AXIS2_PLACEMENT_3D ( 'NONE', #546, #1177, #441 ) ;
#405 =( NAMED_UNIT ( * ) SI_UNIT ( $, .STERADIAN. ) SOLID_ANGLE_UNIT ( ) );
#406 = CARTESIAN_POINT ( 'NONE',  ( 3.174999999999999800, -0.5500000000000000400, 1.575000000000000000 ) ) ;
#407 = ADVANCED_FACE ( 'NONE', ( #981 ), #1282, .F. ) ;
#408 = CARTESIAN_POINT ( 'NONE',  ( 0.0000000000000000000, 0.0000000000000000000, 1.575000000000000000 ) ) ;
#409 = EDGE_CURVE ( 'NONE', #126, #12, #418, .T. ) ;
#410 = CARTESIAN_POINT ( 'NONE',  ( 2.575000000000000200, 0.4400000000000000000, -1.415000000000000000 ) ) ;
#411 = CIRCLE ( 'NONE', #1345, 0.08999999999999980200 ) ;
#412 = ORIENTED_EDGE ( 'NONE', *, *, #386, .F. ) ;
#413 = LINE ( 'NONE', #702, #662 ) ;
#414 = EDGE_CURVE ( 'NONE', #629, #188, #697, .T. ) ;
#415 = DIRECTION ( 'NONE',  ( 1.000000000000000000, 0.0000000000000000000, 0.0000000000000000000 ) ) ;
#416 = ORIENTED_EDGE ( 'NONE', *, *, #341, .T. ) ;
#417 = VERTEX_POINT ( 'NONE', #653 ) ;
#418 = LINE ( 'NONE', #1178, #1299 ) ;
#419 = DIRECTION ( 'NONE',  ( -1.000000000000000000, 0.0000000000000000000, 0.0000000000000000000 ) ) ;
#420 = LINE ( 'NONE', #478, #666 ) ;
#421 = ORIENTED_EDGE ( 'NONE', *, *, #693, .T. ) ;
#422 = PLANE ( 'NONE',  #391 ) ;
#423 = CARTESIAN_POINT ( 'NONE',  ( 3.064999999999999900, 0.4400000000000000000, -1.600000000000000100 ) ) ;
#424 = CARTESIAN_POINT ( 'NONE',  ( 2.890000000000000100, 0.4400000000000000000, 1.600000000000000100 ) ) ;
#425 = DIRECTION ( 'NONE',  ( 0.0000000000000000000, 0.0000000000000000000, -1.000000000000000000 ) ) ;
#426 = CARTESIAN_POINT ( 'NONE',  ( 3.064999999999999900, 0.4400000000000000000, 1.575000000000000000 ) ) ;
#427 = PLANE ( 'NONE',  #543 ) ;
#428 = AXIS2_PLACEMENT_3D ( 'NONE', #1034, #713, #1235 ) ;
#429 = LINE ( 'NONE', #1182, #122 ) ;
#430 = DIRECTION ( 'NONE',  ( 1.000000000000000000, 0.0000000000000000000, 0.0000000000000000000 ) ) ;
#431 = ORIENTED_EDGE ( 'NONE', *, *, #1243, .F. ) ;
#432 = ORIENTED_EDGE ( 'NONE', *, *, #987, .T. ) ;
#433 = LINE ( 'NONE', #326, #497 ) ;
#434 = UNCERTAINTY_MEASURE_WITH_UNIT (LENGTH_MEASURE( 1.000000000000000100E-005 ), #810, 'distance_accuracy_value', 'NONE');
#435 = EDGE_CURVE ( 'NONE', #1263, #924, #145, .T. ) ;
#436 = ORIENTED_EDGE ( 'NONE', *, *, #620, .F. ) ;
#437 = LINE ( 'NONE', #100, #929 ) ;
#438 = VERTEX_POINT ( 'NONE', #865 ) ;
#439 = CARTESIAN_POINT ( 'NONE',  ( 0.0000000000000000000, 0.0000000000000000000, 1.600000000000000100 ) ) ;
#440 = EDGE_CURVE ( 'NONE', #951, #821, #111, .T. ) ;
#441 = DIRECTION ( 'NONE',  ( -1.000000000000000000, 0.0000000000000000000, 0.0000000000000000000 ) ) ;
#442 = CARTESIAN_POINT ( 'NONE',  ( 3.064999999999999900, 0.4400000000000000000, -1.574999999999999700 ) ) ;
#443 = DIRECTION ( 'NONE',  ( 0.0000000000000000000, -1.000000000000000000, -0.0000000000000000000 ) ) ;
#444 = DIRECTION ( 'NONE',  ( 0.0000000000000000000, -0.0000000000000000000, -1.000000000000000000 ) ) ;
#445 = VECTOR ( 'NONE', #35, 1000.000000000000000 ) ;
#446 = ORIENTED_EDGE ( 'NONE', *, *, #934, .F. ) ;
#447 = FACE_OUTER_BOUND ( 'NONE', #611, .T. ) ;
#448 = CARTESIAN_POINT ( 'NONE',  ( -3.174999999999999800, -0.4600000000000000200, 1.575000000000000000 ) ) ;
#449 = ORIENTED_EDGE ( 'NONE', *, *, #1118, .F. ) ;
#450 = LINE ( 'NONE', #1292, #352 ) ;
#451 = DIRECTION ( 'NONE',  ( 0.0000000000000000000, -0.0000000000000000000, -1.000000000000000000 ) ) ;
#452 = CARTESIAN_POINT ( 'NONE',  ( 3.085000000000000000, -0.4600000000000000200, -5.771519999999999800 ) ) ;
#453 = LINE ( 'NONE', #784, #148 ) ;
#454 = CARTESIAN_POINT ( 'NONE',  ( 2.589999999999999900, 0.5500000000000000400, -1.575000000000000000 ) ) ;
#455 = EDGE_LOOP ( 'NONE', ( #1359, #76, #794, #1125 ) ) ;
#456 = CARTESIAN_POINT ( 'NONE',  ( -2.589999999999999900, 0.5500000000000000400, -1.575000000000000000 ) ) ;
#457 = DIRECTION ( 'NONE',  ( -1.000000000000000000, 0.0000000000000000000, -0.0000000000000000000 ) ) ;
#458 = DIRECTION ( 'NONE',  ( 0.0000000000000000000, -1.000000000000000000, 0.0000000000000000000 ) ) ;
#459 = EDGE_CURVE ( 'NONE', #1195, #18, #380, .T. ) ;
#460 = CARTESIAN_POINT ( 'NONE',  ( -3.085000000000000000, -0.5500000000000000400, -1.575000000000000000 ) ) ;
#461 = EDGE_CURVE ( 'NONE', #126, #438, #450, .T. ) ;
#462 = DIRECTION ( 'NONE',  ( 1.000000000000000000, 0.0000000000000000000, 0.0000000000000000000 ) ) ;
#463 = CARTESIAN_POINT ( 'NONE',  ( -2.589999999999999900, 0.5500000000000000400, -1.254999999999999900 ) ) ;
#464 = LINE ( 'NONE', #460, #994 ) ;
#465 = VERTEX_POINT ( 'NONE', #1179 ) ;
#466 = ORIENTED_EDGE ( 'NONE', *, *, #1006, .F. ) ;
#467 = LINE ( 'NONE', #1067, #190 ) ;
#468 = ORIENTED_EDGE ( 'NONE', *, *, #4, .F. ) ;
#469 = LINE ( 'NONE', #507, #1064 ) ;
#470 =( GEOMETRIC_REPRESENTATION_CONTEXT ( 3 ) GLOBAL_UNCERTAINTY_ASSIGNED_CONTEXT ( ( #1068 ) ) GLOBAL_UNIT_ASSIGNED_CONTEXT ( ( #67, #217, #405 ) ) REPRESENTATION_CONTEXT ( 'NONE', 'WORKASPACE' ) );
#471 = ORIENTED_EDGE ( 'NONE', *, *, #620, .T. ) ;
#472 = EDGE_CURVE ( 'NONE', #363, #129, #630, .T. ) ;
#473 = DIRECTION ( 'NONE',  ( 0.0000000000000000000, 0.0000000000000000000, -1.000000000000000000 ) ) ;
#474 = CARTESIAN_POINT ( 'NONE',  ( 2.590000000000000300, 0.4400000000000000000, 1.600000000000000100 ) ) ;
#475 = VERTEX_POINT ( 'NONE', #249 ) ;
#476 = AXIS2_PLACEMENT_3D ( 'NONE', #668, #989, #356 ) ;
#477 = CARTESIAN_POINT ( 'NONE',  ( -2.589999999999999900, 0.5500000000000000400, 1.255000000000000100 ) ) ;
#478 = CARTESIAN_POINT ( 'NONE',  ( 3.064999999999999900, -0.4400000000000000000, -1.574999999999999700 ) ) ;
#479 = LINE ( 'NONE', #339, #204 ) ;
#480 = ORIENTED_EDGE ( 'NONE', *, *, #23, .F. ) ;
#481 = VECTOR ( 'NONE', #296, 1000.000000000000000 ) ;
#482 = ORIENTED_EDGE ( 'NONE', *, *, #238, .F. ) ;
#483 = ORIENTED_EDGE ( 'NONE', *, *, #459, .F. ) ;
#484 = VECTOR ( 'NONE', #329, 1000.000000000000000 ) ;
#485 = EDGE_CURVE ( 'NONE', #1154, #245, #1159, .T. ) ;
#486 = VECTOR ( 'NONE', #1086, 1000.000000000000000 ) ;
#487 = ORIENTED_EDGE ( 'NONE', *, *, #1337, .F. ) ;
#488 = EDGE_CURVE ( 'NONE', #417, #595, #877, .T. ) ;
#489 = DIRECTION ( 'NONE',  ( -0.0000000000000000000, 0.0000000000000000000, 1.000000000000000000 ) ) ;
#490 = AXIS2_PLACEMENT_3D ( 'NONE', #986, #252, #871 ) ;
#491 = CARTESIAN_POINT ( 'NONE',  ( 1.465000000000000100, -0.5500000000000000400, -5.771519999999999800 ) ) ;
#492 = PRESENTATION_STYLE_ASSIGNMENT (( #584 ) ) ;
#493 = ORIENTED_EDGE ( 'NONE', *, *, #1289, .F. ) ;
#494 = FACE_OUTER_BOUND ( 'NONE', #962, .T. ) ;
#495 = EDGE_LOOP ( 'NONE', ( #590, #767, #593, #431 ) ) ;
#496 = ORIENTED_EDGE ( 'NONE', *, *, #1185, .T. ) ;
#497 = VECTOR ( 'NONE', #957, 1000.000000000000000 ) ;
#498 = ADVANCED_FACE ( 'NONE', ( #1124 ), #867, .F. ) ;
#499 = ORIENTED_EDGE ( 'NONE', *, *, #320, .F. ) ;
#500 = FACE_OUTER_BOUND ( 'NONE', #895, .T. ) ;
#501 = VERTEX_POINT ( 'NONE', #39 ) ;
#502 = CARTESIAN_POINT ( 'NONE',  ( -3.174999999999999800, 0.5500000000000000400, -1.575000000000000000 ) ) ;
#503 = AXIS2_PLACEMENT_3D ( 'NONE', #1245, #198, #932 ) ;
#504 = EDGE_CURVE ( 'NONE', #1090, #1025, #78, .T. ) ;
#505 = DIRECTION ( 'NONE',  ( -0.0000000000000000000, -0.0000000000000000000, -1.000000000000000000 ) ) ;
#506 = ADVANCED_FACE ( 'NONE', ( #841 ), #1190, .T. ) ;
#507 = CARTESIAN_POINT ( 'NONE',  ( -2.890000000000000100, 0.5500000000000000400, -1.254999999999999900 ) ) ;
#508 = EDGE_CURVE ( 'NONE', #1043, #188, #1093, .T. ) ;
#509 = DIRECTION ( 'NONE',  ( -1.000000000000000000, -0.0000000000000000000, -0.0000000000000000000 ) ) ;
#510 = ADVANCED_FACE ( 'NONE', ( #16 ), #254, .T. ) ;
#511 = PRODUCT_CONTEXT ( 'NONE', #168, 'mechanical' ) ;
#512 = ORIENTED_EDGE ( 'NONE', *, *, #385, .F. ) ;
#513 = FACE_OUTER_BOUND ( 'NONE', #947, .T. ) ;
#514 = VERTEX_POINT ( 'NONE', #43 ) ;
#515 = CARTESIAN_POINT ( 'NONE',  ( 3.174999999999999800, -0.4600000000000000200, 1.575000000000000000 ) ) ;
#516 = ORIENTED_EDGE ( 'NONE', *, *, #934, .T. ) ;
#517 = VECTOR ( 'NONE', #844, 1000.000000000000000 ) ;
#518 = VECTOR ( 'NONE', #778, 1000.000000000000000 ) ;
#519 = APPLICATION_CONTEXT ( 'automotive_design' ) ;
#520 = CARTESIAN_POINT ( 'NONE',  ( -1.375000000000000000, -0.4400000000000000000, -1.575000000000000000 ) ) ;
#521 = ORIENTED_EDGE ( 'NONE', *, *, #601, .F. ) ;
#522 = CARTESIAN_POINT ( 'NONE',  ( 3.085000000000000000, 0.4600000000000000200, -1.575000000000000000 ) ) ;
#523 = AXIS2_PLACEMENT_3D ( 'NONE', #604, #917, #185 ) ;
#524 = APPLICATION_PROTOCOL_DEFINITION ( 'draft international standard', 'automotive_design', 1998, #519 ) ;
#525 = CARTESIAN_POINT ( 'NONE',  ( -3.085000000000000000, -0.4600000000000000200, 1.575000000000000000 ) ) ;
#526 = DIRECTION ( 'NONE',  ( -1.000000000000000000, 0.0000000000000000000, 0.0000000000000000000 ) ) ;
#527 = DIRECTION ( 'NONE',  ( 1.000000000000000000, 0.0000000000000000000, -0.0000000000000000000 ) ) ;
#528 = EDGE_CURVE ( 'NONE', #126, #30, #534, .T. ) ;
#529 = EDGE_LOOP ( 'NONE', ( #607, #1221, #446, #551, #471, #560, #946, #701, #468, #1060, #763 ) ) ;
#530 = FACE_OUTER_BOUND ( 'NONE', #90, .T. ) ;
#531 = EDGE_CURVE ( 'NONE', #363, #839, #804, .T. ) ;
#532 = ORIENTED_EDGE ( 'NONE', *, *, #472, .F. ) ;
#533 = ORIENTED_EDGE ( 'NONE', *, *, #693, .F. ) ;
#534 = CIRCLE ( 'NONE', #404, 0.09000000000000002400 ) ;
#535 = CARTESIAN_POINT ( 'NONE',  ( -3.064999999999999900, 0.4400000000000000000, 1.600000000000000100 ) ) ;
#536 = EDGE_LOOP ( 'NONE', ( #1226, #1240, #532, #144 ) ) ;
#537 = EDGE_LOOP ( 'NONE', ( #1244, #348, #729, #882 ) ) ;
#538 = CARTESIAN_POINT ( 'NONE',  ( 3.085000000000000000, -0.4600000000000000200, 1.575000000000000000 ) ) ;
#539 = ORIENTED_EDGE ( 'NONE', *, *, #235, .F. ) ;
#540 = SURFACE_SIDE_STYLE ('',( #774 ) ) ;
#541 = EDGE_CURVE ( 'NONE', #1160, #1025, #259, .T. ) ;
#542 = DIRECTION ( 'NONE',  ( 1.000000000000000000, 0.0000000000000000000, -0.0000000000000000000 ) ) ;
#543 = AXIS2_PLACEMENT_3D ( 'NONE', #108, #102, #1213 ) ;
#544 = CARTESIAN_POINT ( 'NONE',  ( -3.064999999999999900, -0.4400000000000000000, -1.575000000000000000 ) ) ;
#545 = PLANE ( 'NONE',  #1285 ) ;
#546 = CARTESIAN_POINT ( 'NONE',  ( -1.465000000000000100, -0.4600000000000000200, 1.575000000000000000 ) ) ;
#547 = DIRECTION ( 'NONE',  ( -0.0000000000000000000, 1.000000000000000000, 0.0000000000000000000 ) ) ;
#548 = FILL_AREA_STYLE_COLOUR ( '', #300 ) ;
#549 = ORIENTED_EDGE ( 'NONE', *, *, #191, .T. ) ;
#550 = FACE_OUTER_BOUND ( 'NONE', #1092, .T. ) ;
#551 = ORIENTED_EDGE ( 'NONE', *, *, #314, .F. ) ;
#552 = LINE ( 'NONE', #223, #1077 ) ;
#553 = VECTOR ( 'NONE', #888, 1000.000000000000000 ) ;
#554 = EDGE_CURVE ( 'NONE', #1297, #644, #1062, .T. ) ;
#555 = DIRECTION ( 'NONE',  ( 1.000000000000000000, 0.0000000000000000000, -0.0000000000000000000 ) ) ;
#556 = EDGE_CURVE ( 'NONE', #1283, #514, #319, .T. ) ;
#557 = DIRECTION ( 'NONE',  ( 0.0000000000000000000, 1.000000000000000000, -0.0000000000000000000 ) ) ;
#558 = CARTESIAN_POINT ( 'NONE',  ( -2.589999999999999900, 0.5500000000000000400, -1.254999999999999900 ) ) ;
#559 = DIRECTION ( 'NONE',  ( 0.0000000000000000000, -0.0000000000000000000, -1.000000000000000000 ) ) ;
#560 = ORIENTED_EDGE ( 'NONE', *, *, #112, .F. ) ;
#561 = LINE ( 'NONE', #571, #1059 ) ;
#562 = PRESENTATION_LAYER_ASSIGNMENT (  '', '', ( #704 ) ) ;
#563 = ORIENTED_EDGE ( 'NONE', *, *, #906, .T. ) ;
#564 = VERTEX_POINT ( 'NONE', #544 ) ;
#565 = VECTOR ( 'NONE', #878, 1000.000000000000000 ) ;
#566 = CARTESIAN_POINT ( 'NONE',  ( -2.890000000000000100, 0.4400000000000000000, -1.575000000000000000 ) ) ;
#567 = ORIENTED_EDGE ( 'NONE', *, *, #4, .T. ) ;
#568 = ORIENTED_EDGE ( 'NONE', *, *, #1099, .T. ) ;
#569 = CARTESIAN_POINT ( 'NONE',  ( -3.085000000000000000, 0.5500000000000000400, -1.575000000000000000 ) ) ;
#570 = CARTESIAN_POINT ( 'NONE',  ( -3.085000000000000000, 0.5500000000000000400, 1.575000000000000000 ) ) ;
#571 = CARTESIAN_POINT ( 'NONE',  ( -3.064999999999999900, -0.4400000000000000000, 1.600000000000000100 ) ) ;
#572 = CARTESIAN_POINT ( 'NONE',  ( 3.174999999999999800, 0.4600000000000000200, -5.771519999999999800 ) ) ;
#573 = PLANE ( 'NONE',  #11 ) ;
#574 = PRESENTATION_STYLE_ASSIGNMENT (( #130 ) ) ;
#575 = VERTEX_POINT ( 'NONE', #646 ) ;
#576 = DIRECTION ( 'NONE',  ( -0.0000000000000000000, 1.000000000000000000, 0.0000000000000000000 ) ) ;
#577 = EDGE_CURVE ( 'NONE', #1163, #1263, #467, .T. ) ;
#578 = ORIENTED_EDGE ( 'NONE', *, *, #297, .T. ) ;
#579 = VECTOR ( 'NONE', #619, 1000.000000000000000 ) ;
#580 = ORIENTED_EDGE ( 'NONE', *, *, #556, .T. ) ;
#581 = FACE_OUTER_BOUND ( 'NONE', #805, .T. ) ;
#582 = DIRECTION ( 'NONE',  ( 1.000000000000000000, -0.0000000000000000000, 0.0000000000000000000 ) ) ;
#583 = LINE ( 'NONE', #886, #1048 ) ;
#584 = SURFACE_STYLE_USAGE ( .BOTH. , #540 ) ;
#585 = DIRECTION ( 'NONE',  ( 0.0000000000000000000, 0.0000000000000000000, 1.000000000000000000 ) ) ;
#586 = AXIS2_PLACEMENT_3D ( 'NONE', #1017, #279, #907 ) ;
#587 = CARTESIAN_POINT ( 'NONE',  ( 2.575000000000000200, 0.5500000000000000400, 1.254999999999999900 ) ) ;
#588 = ORIENTED_EDGE ( 'NONE', *, *, #698, .T. ) ;
#589 = LINE ( 'NONE', #1004, #1186 ) ;
#590 = ORIENTED_EDGE ( 'NONE', *, *, #749, .F. ) ;
#591 = ORIENTED_EDGE ( 'NONE', *, *, #622, .T. ) ;
#592 = VECTOR ( 'NONE', #342, 1000.000000000000000 ) ;
#593 = ORIENTED_EDGE ( 'NONE', *, *, #1, .F. ) ;
#594 = COLOUR_RGB ( '',0.7529411764705882200, 0.7529411764705882200, 0.7529411764705882200 ) ;
#595 = VERTEX_POINT ( 'NONE', #328 ) ;
#596 = EDGE_CURVE ( 'NONE', #1025, #777, #1313, .T. ) ;
#597 = DIRECTION ( 'NONE',  ( 0.0000000000000000000, 0.0000000000000000000, 1.000000000000000000 ) ) ;
#598 = ADVANCED_FACE ( 'NONE', ( #1278 ), #851, .F. ) ;
#599 = FILL_AREA_STYLE ('',( #287 ) ) ;
#600 = CARTESIAN_POINT ( 'NONE',  ( -2.589999999999999900, 0.4400000000000000000, 1.255000000000000100 ) ) ;
#601 = EDGE_CURVE ( 'NONE', #79, #762, #433, .T. ) ;
#602 = CARTESIAN_POINT ( 'NONE',  ( -3.064999999999999900, -0.4400000000000000000, 1.600000000000000100 ) ) ;
#603 = ADVANCED_FACE ( 'NONE', ( #1239 ), #1065, .T. ) ;
#604 = CARTESIAN_POINT ( 'NONE',  ( 3.064999999999999900, -0.4400000000000000000, 1.600000000000000100 ) ) ;
#605 = VECTOR ( 'NONE', #241, 1000.000000000000000 ) ;
#606 = EDGE_LOOP ( 'NONE', ( #466, #49, #1355, #768 ) ) ;
#607 = ORIENTED_EDGE ( 'NONE', *, *, #158, .F. ) ;
#608 = VECTOR ( 'NONE', #218, 1000.000000000000000 ) ;
#609 = CARTESIAN_POINT ( 'NONE',  ( -3.085000000000000000, 0.4600000000000000200, 1.575000000000000000 ) ) ;
#610 = VERTEX_POINT ( 'NONE', #1167 ) ;
#611 = EDGE_LOOP ( 'NONE', ( #1028, #893, #1173, #379, #1009, #1111, #751, #837, #1220, #149, #192, #1341 ) ) ;
#612 = FACE_OUTER_BOUND ( 'NONE', #663, .T. ) ;
#613 = CARTESIAN_POINT ( 'NONE',  ( -2.575000000000000200, 0.5500000000000000400, -1.600000000000000100 ) ) ;
#614 = ADVANCED_FACE ( 'NONE', ( #746 ), #397, .T. ) ;
#615 = DIRECTION ( 'NONE',  ( -0.0000000000000000000, -0.0000000000000000000, 1.000000000000000000 ) ) ;
#616 = DIRECTION ( 'NONE',  ( 0.0000000000000000000, 0.0000000000000000000, 1.000000000000000000 ) ) ;
#617 = CARTESIAN_POINT ( 'NONE',  ( -3.085000000000000000, -0.5500000000000000400, 1.575000000000000000 ) ) ;
#618 = ADVANCED_FACE ( 'NONE', ( #161, #125 ), #1057, .F. ) ;
#619 = DIRECTION ( 'NONE',  ( 0.0000000000000000000, 1.000000000000000000, -0.0000000000000000000 ) ) ;
#620 = EDGE_CURVE ( 'NONE', #1158, #1095, #1204, .T. ) ;
#621 = DIRECTION ( 'NONE',  ( 1.000000000000000000, 0.0000000000000000000, 0.0000000000000000000 ) ) ;
#622 = EDGE_CURVE ( 'NONE', #1120, #1138, #711, .T. ) ;
#623 = DIRECTION ( 'NONE',  ( 0.0000000000000000000, 0.0000000000000000000, 1.000000000000000000 ) ) ;
#624 = CIRCLE ( 'NONE', #120, 0.09000000000000002400 ) ;
#625 = ORIENTED_EDGE ( 'NONE', *, *, #982, .F. ) ;
#626 = VECTOR ( 'NONE', #489, 1000.000000000000000 ) ;
#627 = CARTESIAN_POINT ( 'NONE',  ( 0.0000000000000000000, 0.5500000000000000400, -1.575000000000000000 ) ) ;
#628 = ORIENTED_EDGE ( 'NONE', *, *, #409, .F. ) ;
#629 = VERTEX_POINT ( 'NONE', #423 ) ;
#630 = LINE ( 'NONE', #655, #910 ) ;
#631 = ORIENTED_EDGE ( 'NONE', *, *, #601, .T. ) ;
#632 = CIRCLE ( 'NONE', #800, 0.09000000000000002400 ) ;
#633 = DIRECTION ( 'NONE',  ( -0.0000000000000000000, -1.000000000000000000, 0.0000000000000000000 ) ) ;
#634 = ORIENTED_EDGE ( 'NONE', *, *, #1267, .F. ) ;
#635 = CARTESIAN_POINT ( 'NONE',  ( 2.890000000000000100, 0.4400000000000000000, 1.575000000000000000 ) ) ;
#636 = AXIS2_PLACEMENT_3D ( 'NONE', #1191, #1305, #555 ) ;
#637 = DIRECTION ( 'NONE',  ( 1.000000000000000000, 0.0000000000000000000, 0.0000000000000000000 ) ) ;
#638 = DIRECTION ( 'NONE',  ( -0.0000000000000000000, 0.0000000000000000000, 1.000000000000000000 ) ) ;
#639 = CARTESIAN_POINT ( 'NONE',  ( -3.174999999999999800, -0.5500000000000000400, -1.575000000000000000 ) ) ;
#640 = AXIS2_PLACEMENT_3D ( 'NONE', #538, #1272, #637 ) ;
#641 = PLANE ( 'NONE',  #1134 ) ;
#642 = FACE_OUTER_BOUND ( 'NONE', #143, .T. ) ;
#643 = ORIENTED_EDGE ( 'NONE', *, *, #956, .T. ) ;
#644 = VERTEX_POINT ( 'NONE', #1269 ) ;
#645 = VECTOR ( 'NONE', #527, 1000.000000000000000 ) ;
#646 = CARTESIAN_POINT ( 'NONE',  ( 2.890000000000000100, 0.5500000000000000400, -1.575000000000000000 ) ) ;
#647 = VERTEX_POINT ( 'NONE', #842 ) ;
#648 = CIRCLE ( 'NONE', #229, 0.08999999999999980200 ) ;
#649 = DIRECTION ( 'NONE',  ( 0.0000000000000000000, 0.0000000000000000000, 1.000000000000000000 ) ) ;
#650 = VERTEX_POINT ( 'NONE', #312 ) ;
#651 = EDGE_CURVE ( 'NONE', #61, #610, #896, .T. ) ;
#652 =( NAMED_UNIT ( * ) SI_UNIT ( $, .STERADIAN. ) SOLID_ANGLE_UNIT ( ) );
#653 = CARTESIAN_POINT ( 'NONE',  ( 1.375000000000000000, -0.4600000000000000200, 1.575000000000000000 ) ) ;
#654 = PLANE ( 'NONE',  #1273 ) ;
#655 = CARTESIAN_POINT ( 'NONE',  ( 3.064999999999999900, 0.4400000000000000000, 1.575000000000000000 ) ) ;
#656 = CARTESIAN_POINT ( 'NONE',  ( -3.064999999999999900, -0.4400000000000000000, 1.575000000000000000 ) ) ;
#657 = DIRECTION ( 'NONE',  ( 0.0000000000000000000, 0.0000000000000000000, -1.000000000000000000 ) ) ;
#658 = AXIS2_PLACEMENT_3D ( 'NONE', #291, #597, #1229 ) ;
#659 = VECTOR ( 'NONE', #1038, 1000.000000000000000 ) ;
#660 = DIRECTION ( 'NONE',  ( -0.0000000000000000000, 1.000000000000000000, 0.0000000000000000000 ) ) ;
#661 = VERTEX_POINT ( 'NONE', #950 ) ;
#662 = VECTOR ( 'NONE', #1228, 1000.000000000000000 ) ;
#663 = EDGE_LOOP ( 'NONE', ( #176, #1316, #1172, #364, #1188, #1294, #303, #1030, #45, #416, #421 ) ) ;
#664 = ORIENTED_EDGE ( 'NONE', *, *, #472, .T. ) ;
#665 = VECTOR ( 'NONE', #756, 1000.000000000000000 ) ;
#666 = VECTOR ( 'NONE', #1113, 1000.000000000000000 ) ;
#667 = ORIENTED_EDGE ( 'NONE', *, *, #263, .T. ) ;
#668 = CARTESIAN_POINT ( 'NONE',  ( -2.890000000000000100, 0.5500000000000000400, 1.575000000000000000 ) ) ;
#669 = DIRECTION ( 'NONE',  ( 1.000000000000000000, 0.0000000000000000000, 0.0000000000000000000 ) ) ;
#670 = PLANE ( 'NONE',  #883 ) ;
#671 = CARTESIAN_POINT ( 'NONE',  ( 3.174999999999999800, -0.5500000000000000400, -1.575000000000000000 ) ) ;
#672 = EDGE_CURVE ( 'NONE', #268, #1263, #1174, .T. ) ;
#673 = PLANE ( 'NONE',  #739 ) ;
#674 = DIRECTION ( 'NONE',  ( -1.000000000000000000, 0.0000000000000000000, 0.0000000000000000000 ) ) ;
#675 = CARTESIAN_POINT ( 'NONE',  ( -3.064999999999999900, 0.4400000000000000000, -1.575000000000000000 ) ) ;
#676 = EDGE_CURVE ( 'NONE', #129, #595, #91, .T. ) ;
#677 = FACE_OUTER_BOUND ( 'NONE', #1358, .T. ) ;
#678 = STYLED_ITEM ( 'NONE', ( #492 ), #1321 ) ;
#679 = ORIENTED_EDGE ( 'NONE', *, *, #47, .T. ) ;
#680 = ORIENTED_EDGE ( 'NONE', *, *, #1022, .T. ) ;
#681 = VECTOR ( 'NONE', #633, 1000.000000000000000 ) ;
#682 = CARTESIAN_POINT ( 'NONE',  ( -2.890000000000000100, 0.5500000000000000400, 1.254999999999999900 ) ) ;
#683 = ORIENTED_EDGE ( 'NONE', *, *, #414, .F. ) ;
#684 = LINE ( 'NONE', #936, #1241 ) ;
#685 = ORIENTED_EDGE ( 'NONE', *, *, #806, .T. ) ;
#686 = CARTESIAN_POINT ( 'NONE',  ( 2.890000000000000100, 0.5500000000000000400, -1.575000000000000000 ) ) ;
#687 = AXIS2_PLACEMENT_3D ( 'NONE', #128, #1279, #542 ) ;
#688 = DIRECTION ( 'NONE',  ( 0.0000000000000000000, 0.0000000000000000000, 1.000000000000000000 ) ) ;
#689 = CARTESIAN_POINT ( 'NONE',  ( 1.375000000000000000, -0.4600000000000000200, -1.575000000000000000 ) ) ;
#690 = PLANE ( 'NONE',  #1016 ) ;
#691 = VECTOR ( 'NONE', #19, 1000.000000000000000 ) ;
#692 = VERTEX_POINT ( 'NONE', #1262 ) ;
#693 = EDGE_CURVE ( 'NONE', #925, #575, #62, .T. ) ;
#694 = LINE ( 'NONE', #1126, #141 ) ;
#695 = VERTEX_POINT ( 'NONE', #214 ) ;
#696 = EDGE_LOOP ( 'NONE', ( #683, #563, #3, #780 ) ) ;
#697 = LINE ( 'NONE', #338, #1222 ) ;
#698 = EDGE_CURVE ( 'NONE', #324, #710, #333, .T. ) ;
#699 = CYLINDRICAL_SURFACE ( 'NONE', #1019, 0.08999999999999980200 ) ;
#700 = CARTESIAN_POINT ( 'NONE',  ( -2.890000000000000100, 0.4400000000000000000, 1.254999999999999900 ) ) ;
#701 = ORIENTED_EDGE ( 'NONE', *, *, #138, .T. ) ;
#702 = CARTESIAN_POINT ( 'NONE',  ( -2.890000000000000100, 0.5500000000000000400, 1.254999999999999900 ) ) ;
#703 = VERTEX_POINT ( 'NONE', #6 ) ;
#704 = STYLED_ITEM ( 'NONE', ( #574 ), #1227 ) ;
#705 = PLANE ( 'NONE',  #658 ) ;
#706 = SURFACE_SIDE_STYLE ('',( #1161 ) ) ;
#707 = LINE ( 'NONE', #558, #959 ) ;
#708 = DIRECTION ( 'NONE',  ( -1.000000000000000000, 0.0000000000000000000, 0.0000000000000000000 ) ) ;
#709 = ORIENTED_EDGE ( 'NONE', *, *, #392, .F. ) ;
#710 = VERTEX_POINT ( 'NONE', #103 ) ;
#711 = LINE ( 'NONE', #323, #645 ) ;
#712 = ADVANCED_FACE ( 'NONE', ( #860 ), #1255, .T. ) ;
#713 = DIRECTION ( 'NONE',  ( 0.0000000000000000000, 0.0000000000000000000, -1.000000000000000000 ) ) ;
#714 = AXIS2_PLACEMENT_3D ( 'NONE', #830, #733, #104 ) ;
#715 = ORIENTED_EDGE ( 'NONE', *, *, #982, .T. ) ;
#716 = LINE ( 'NONE', #1354, #966 ) ;
#717 = VERTEX_POINT ( 'NONE', #520 ) ;
#718 = ADVANCED_FACE ( 'NONE', ( #302 ), #99, .F. ) ;
#719 = CARTESIAN_POINT ( 'NONE',  ( -2.890000000000000100, 0.5500000000000000400, -1.254999999999999900 ) ) ;
#720 = EDGE_CURVE ( 'NONE', #194, #79, #1109, .T. ) ;
#721 = CARTESIAN_POINT ( 'NONE',  ( 0.0000000000000000000, 0.5500000000000000400, 1.575000000000000000 ) ) ;
#722 = DIRECTION ( 'NONE',  ( -1.000000000000000000, 0.0000000000000000000, 0.0000000000000000000 ) ) ;
#723 = DIRECTION ( 'NONE',  ( -0.0000000000000000000, 0.0000000000000000000, 1.000000000000000000 ) ) ;
#724 = ADVANCED_FACE ( 'NONE', ( #550 ), #1145, .F. ) ;
#725 = LINE ( 'NONE', #213, #1291 ) ;
#726 = VERTEX_POINT ( 'NONE', #1249 ) ;
#727 = CIRCLE ( 'NONE', #586, 0.09000000000000002400 ) ;
#728 = CARTESIAN_POINT ( 'NONE',  ( 2.890000000000000100, 0.5500000000000000400, 1.255000000000000100 ) ) ;
#729 = ORIENTED_EDGE ( 'NONE', *, *, #70, .T. ) ;
#730 = LINE ( 'NONE', #967, #484 ) ;
#731 = CARTESIAN_POINT ( 'NONE',  ( -2.890000000000000100, 0.5500000000000000400, -1.575000000000000000 ) ) ;
#732 = LINE ( 'NONE', #1307, #1013 ) ;
#733 = DIRECTION ( 'NONE',  ( 1.000000000000000000, 0.0000000000000000000, 0.0000000000000000000 ) ) ;
#734 = EDGE_LOOP ( 'NONE', ( #799, #378, #180, #1063, #225, #226, #381, #331 ) ) ;
#735 = VERTEX_POINT ( 'NONE', #719 ) ;
#736 = CARTESIAN_POINT ( 'NONE',  ( 3.085000000000000000, 0.5500000000000000400, -1.575000000000000000 ) ) ;
#737 = CARTESIAN_POINT ( 'NONE',  ( 3.064999999999999900, 0.4400000000000000000, -1.575000000000000000 ) ) ;
#738 = CARTESIAN_POINT ( 'NONE',  ( -2.890000000000000100, 0.5500000000000000400, -1.575000000000000000 ) ) ;
#739 = AXIS2_PLACEMENT_3D ( 'NONE', #991, #358, #1091 ) ;
#740 = EDGE_CURVE ( 'NONE', #1058, #1195, #822, .T. ) ;
#741 = DIRECTION ( 'NONE',  ( 1.000000000000000000, 0.0000000000000000000, 0.0000000000000000000 ) ) ;
#742 = LINE ( 'NONE', #671, #1310 ) ;
#743 = CARTESIAN_POINT ( 'NONE',  ( 2.575000000000000200, 0.5500000000000000400, -1.254999999999999900 ) ) ;
#744 = ORIENTED_EDGE ( 'NONE', *, *, #698, .F. ) ;
#745 = ORIENTED_EDGE ( 'NONE', *, *, #25, .F. ) ;
#746 = FACE_OUTER_BOUND ( 'NONE', #1141, .T. ) ;
#747 = VERTEX_POINT ( 'NONE', #1136 ) ;
#748 = LINE ( 'NONE', #1036, #164 ) ;
#749 = EDGE_CURVE ( 'NONE', #829, #281, #365, .T. ) ;
#750 = DIRECTION ( 'NONE',  ( 1.000000000000000000, 0.0000000000000000000, -0.0000000000000000000 ) ) ;
#751 = ORIENTED_EDGE ( 'NONE', *, *, #138, .F. ) ;
#752 = DIRECTION ( 'NONE',  ( 1.000000000000000000, 0.0000000000000000000, -0.0000000000000000000 ) ) ;
#753 = PRESENTATION_LAYER_ASSIGNMENT (  '', '', ( #678 ) ) ;
#754 = CARTESIAN_POINT ( 'NONE',  ( -2.890000000000000100, 0.5500000000000000400, 1.575000000000000000 ) ) ;
#755 = AXIS2_PLACEMENT_3D ( 'NONE', #525, #1151, #419 ) ;
#756 = DIRECTION ( 'NONE',  ( 0.0000000000000000000, 1.000000000000000000, -0.0000000000000000000 ) ) ;
#757 = CARTESIAN_POINT ( 'NONE',  ( -1.374999999999999600, -0.4400000000000000000, 1.600000000000000100 ) ) ;
#758 = LINE ( 'NONE', #866, #445 ) ;
#759 = ORIENTED_EDGE ( 'NONE', *, *, #440, .T. ) ;
#760 = VECTOR ( 'NONE', #1023, 1000.000000000000000 ) ;
#761 = CARTESIAN_POINT ( 'NONE',  ( -2.890000000000000100, 0.5500000000000000400, 1.254999999999999900 ) ) ;
#762 = VERTEX_POINT ( 'NONE', #930 ) ;
#763 = ORIENTED_EDGE ( 'NONE', *, *, #1265, .F. ) ;
#764 = VECTOR ( 'NONE', #958, 1000.000000000000000 ) ;
#765 = CARTESIAN_POINT ( 'NONE',  ( 3.085000000000000000, 0.5500000000000000400, -1.575000000000000000 ) ) ;
#766 = FACE_OUTER_BOUND ( 'NONE', #172, .T. ) ;
#767 = ORIENTED_EDGE ( 'NONE', *, *, #1006, .T. ) ;
#768 = ORIENTED_EDGE ( 'NONE', *, *, #769, .F. ) ;
#769 = EDGE_CURVE ( 'NONE', #1319, #1154, #1074, .T. ) ;
#770 = DIRECTION ( 'NONE',  ( 0.0000000000000000000, 0.0000000000000000000, 1.000000000000000000 ) ) ;
#771 = EDGE_CURVE ( 'NONE', #262, #321, #269, .T. ) ;
#772 = CARTESIAN_POINT ( 'NONE',  ( 3.085000000000000000, -0.4600000000000000200, -1.575000000000000000 ) ) ;
#773 = AXIS2_PLACEMENT_3D ( 'NONE', #452, #343, #977 ) ;
#774 = SURFACE_STYLE_FILL_AREA ( #309 ) ;
#775 = ORIENTED_EDGE ( 'NONE', *, *, #1166, .F. ) ;
#776 = FACE_OUTER_BOUND ( 'NONE', #536, .T. ) ;
#777 = VERTEX_POINT ( 'NONE', #1350 ) ;
#778 = DIRECTION ( 'NONE',  ( 1.000000000000000000, 0.0000000000000000000, 0.0000000000000000000 ) ) ;
#779 = VECTOR ( 'NONE', #1070, 1000.000000000000000 ) ;
#780 = ORIENTED_EDGE ( 'NONE', *, *, #508, .T. ) ;
#781 = LINE ( 'NONE', #502, #1317 ) ;
#782 = ORIENTED_EDGE ( 'NONE', *, *, #672, .F. ) ;
#783 = DIRECTION ( 'NONE',  ( -1.000000000000000000, 0.0000000000000000000, 0.0000000000000000000 ) ) ;
#784 = CARTESIAN_POINT ( 'NONE',  ( 3.064999999999999900, 0.0000000000000000000, 1.600000000000000100 ) ) ;
#785 = EDGE_CURVE ( 'NONE', #821, #1297, #243, .T. ) ;
#786 = ORIENTED_EDGE ( 'NONE', *, *, #211, .F. ) ;
#787 = CARTESIAN_POINT ( 'NONE',  ( -3.174999999999999800, 0.4600000000000000200, 5.771519999999999800 ) ) ;
#788 = VECTOR ( 'NONE', #1035, 1000.000000000000000 ) ;
#789 = ORIENTED_EDGE ( 'NONE', *, *, #41, .F. ) ;
#790 = DIRECTION ( 'NONE',  ( -0.0000000000000000000, -0.0000000000000000000, 1.000000000000000000 ) ) ;
#791 = ORIENTED_EDGE ( 'NONE', *, *, #740, .T. ) ;
#792 = LINE ( 'NONE', #119, #1112 ) ;
#793 = VECTOR ( 'NONE', #1318, 1000.000000000000000 ) ;
#794 = ORIENTED_EDGE ( 'NONE', *, *, #238, .T. ) ;
#795 = CARTESIAN_POINT ( 'NONE',  ( 2.890000000000000100, 0.4400000000000000000, -1.575000000000000000 ) ) ;
#796 = DIRECTION ( 'NONE',  ( 0.0000000000000000000, -0.0000000000000000000, -1.000000000000000000 ) ) ;
#797 = DIRECTION ( 'NONE',  ( -0.0000000000000000000, 1.000000000000000000, 0.0000000000000000000 ) ) ;
#798 = DIRECTION ( 'NONE',  ( 0.0000000000000000000, 0.0000000000000000000, 1.000000000000000000 ) ) ;
#799 = ORIENTED_EDGE ( 'NONE', *, *, #314, .T. ) ;
#800 = AXIS2_PLACEMENT_3D ( 'NONE', #66, #368, #1326 ) ;
#801 = VECTOR ( 'NONE', #1106, 1000.000000000000000 ) ;
#802 = ORIENTED_EDGE ( 'NONE', *, *, #182, .T. ) ;
#803 = ORIENTED_EDGE ( 'NONE', *, *, #70, .F. ) ;
#804 = LINE ( 'NONE', #251, #1343 ) ;
#805 = EDGE_LOOP ( 'NONE', ( #140, #516, #809, #493 ) ) ;
#806 = EDGE_CURVE ( 'NONE', #475, #396, #1331, .T. ) ;
#807 = ORIENTED_EDGE ( 'NONE', *, *, #740, .F. ) ;
#808 = CARTESIAN_POINT ( 'NONE',  ( -2.575000000000000200, 0.4400000000000000000, -1.415000000000000000 ) ) ;
#809 = ORIENTED_EDGE ( 'NONE', *, *, #1315, .T. ) ;
#810 =( LENGTH_UNIT ( ) NAMED_UNIT ( * ) SI_UNIT ( .MILLI., .METRE. ) );
#811 = ADVANCED_FACE ( 'NONE', ( #513 ), #812, .F. ) ;
#812 = PLANE ( 'NONE',  #373 ) ;
#813 = EDGE_CURVE ( 'NONE', #261, #321, #1010, .T. ) ;
#814 = CARTESIAN_POINT ( 'NONE',  ( 1.465000000000000100, -0.5500000000000000400, 1.575000000000000000 ) ) ;
#815 = MECHANICAL_DESIGN_GEOMETRIC_PRESENTATION_REPRESENTATION (  '', ( #678 ), #890 ) ;
#816 = UNCERTAINTY_MEASURE_WITH_UNIT (LENGTH_MEASURE( 1.000000000000000100E-005 ), #169, 'distance_accuracy_value', 'NONE');
#817 = ADVANCED_FACE ( 'NONE', ( #447 ), #1129, .F. ) ;
#818 = PLANE ( 'NONE',  #503 ) ;
#819 = DIRECTION ( 'NONE',  ( -0.0000000000000000000, -0.0000000000000000000, 1.000000000000000000 ) ) ;
#820 = CARTESIAN_POINT ( 'NONE',  ( 2.589999999999999900, 0.5500000000000000400, -1.575000000000000000 ) ) ;
#821 = VERTEX_POINT ( 'NONE', #600 ) ;
#822 = LINE ( 'NONE', #820, #1356 ) ;
#823 = CARTESIAN_POINT ( 'NONE',  ( 3.085000000000000000, 0.5500000000000000400, 1.575000000000000000 ) ) ;
#824 = AXIS2_PLACEMENT_3D ( 'NONE', #639, #849, #118 ) ;
#825 = EDGE_LOOP ( 'NONE', ( #230, #643, #124, #591 ) ) ;
#826 = VECTOR ( 'NONE', #1162, 1000.000000000000000 ) ;
#827 = LINE ( 'NONE', #1102, #553 ) ;
#828 = ADVANCED_FACE ( 'NONE', ( #1257 ), #705, .F. ) ;
#829 = VERTEX_POINT ( 'NONE', #808 ) ;
#830 = CARTESIAN_POINT ( 'NONE',  ( -1.375000000000000000, -0.5500000000000000400, -1.575000000000000000 ) ) ;
#831 = DIRECTION ( 'NONE',  ( 0.0000000000000000000, 1.000000000000000000, 0.0000000000000000000 ) ) ;
#832 = EDGE_CURVE ( 'NONE', #52, #564, #207, .T. ) ;
#833 = CARTESIAN_POINT ( 'NONE',  ( -2.890000000000000100, 0.0000000000000000000, 1.575000000000000000 ) ) ;
#834 = EDGE_CURVE ( 'NONE', #465, #194, #1295, .T. ) ;
#835 = PLANE ( 'NONE',  #922 ) ;
#836 = COLOUR_RGB ( '',0.7921568627450980000, 0.8196078431372548800, 0.9333333333333333500 ) ;
#837 = ORIENTED_EDGE ( 'NONE', *, *, #1032, .T. ) ;
#838 = VECTOR ( 'NONE', #1110, 1000.000000000000000 ) ;
#839 = VERTEX_POINT ( 'NONE', #183 ) ;
#840 = ORIENTED_EDGE ( 'NONE', *, *, #158, .T. ) ;
#841 = FACE_OUTER_BOUND ( 'NONE', #734, .T. ) ;
#842 = CARTESIAN_POINT ( 'NONE',  ( -1.465000000000000100, -0.5500000000000000400, -1.575000000000000000 ) ) ;
#843 = ORIENTED_EDGE ( 'NONE', *, *, #1347, .T. ) ;
#844 = DIRECTION ( 'NONE',  ( -0.0000000000000000000, -0.0000000000000000000, -1.000000000000000000 ) ) ;
#845 = MECHANICAL_DESIGN_GEOMETRIC_PRESENTATION_REPRESENTATION (  '', ( #704 ), #916 ) ;
#846 = ORIENTED_EDGE ( 'NONE', *, *, #89, .F. ) ;
#847 =( LENGTH_UNIT ( ) NAMED_UNIT ( * ) SI_UNIT ( .MILLI., .METRE. ) );
#848 = ORIENTED_EDGE ( 'NONE', *, *, #385, .T. ) ;
#849 = DIRECTION ( 'NONE',  ( 0.0000000000000000000, -1.000000000000000000, 0.0000000000000000000 ) ) ;
#850 = CARTESIAN_POINT ( 'NONE',  ( 2.589999999999999900, 0.5500000000000000400, -1.254999999999999900 ) ) ;
#851 = PLANE ( 'NONE',  #687 ) ;
#852 = PRODUCT_DEFINITION_CONTEXT ( 'detailed design', #519, 'design' ) ;
#853 = AXIS2_PLACEMENT_3D ( 'NONE', #216, #1152, #526 ) ;
#854 = CARTESIAN_POINT ( 'NONE',  ( -2.589999999999999900, 0.5500000000000000400, -1.575000000000000000 ) ) ;
#855 = SURFACE_STYLE_FILL_AREA ( #240 ) ;
#856 = DIRECTION ( 'NONE',  ( -0.0000000000000000000, -1.000000000000000000, 0.0000000000000000000 ) ) ;
#857 = SURFACE_SIDE_STYLE ('',( #855 ) ) ;
#858 = ORIENTED_EDGE ( 'NONE', *, *, #596, .T. ) ;
#859 = EDGE_LOOP ( 'NONE', ( #496, #110, #28, #290 ) ) ;
#860 = FACE_OUTER_BOUND ( 'NONE', #147, .T. ) ;
#861 = ORIENTED_EDGE ( 'NONE', *, *, #504, .T. ) ;
#862 = VECTOR ( 'NONE', #316, 1000.000000000000000 ) ;
#863 = EDGE_CURVE ( 'NONE', #909, #1043, #694, .T. ) ;
#864 = LINE ( 'NONE', #572, #1114 ) ;
#865 = CARTESIAN_POINT ( 'NONE',  ( -1.375000000000000000, -0.4600000000000000200, -1.575000000000000000 ) ) ;
#866 = CARTESIAN_POINT ( 'NONE',  ( 2.575000000000000200, 0.5500000000000000400, -1.415000000000000000 ) ) ;
#867 = PLANE ( 'NONE',  #199 ) ;
#868 = DIRECTION ( 'NONE',  ( 0.0000000000000000000, 0.0000000000000000000, 1.000000000000000000 ) ) ;
#869 = AXIS2_PLACEMENT_3D ( 'NONE', #374, #278, #900 ) ;
#870 = CARTESIAN_POINT ( 'NONE',  ( -3.064999999999999900, 0.4400000000000000000, 1.600000000000000100 ) ) ;
#871 = DIRECTION ( 'NONE',  ( 0.0000000000000000000, 0.0000000000000000000, -1.000000000000000000 ) ) ;
#872 = FACE_OUTER_BOUND ( 'NONE', #859, .T. ) ;
#873 = ORIENTED_EDGE ( 'NONE', *, *, #276, .F. ) ;
#874 = FACE_OUTER_BOUND ( 'NONE', #353, .T. ) ;
#875 = ORIENTED_EDGE ( 'NONE', *, *, #1073, .F. ) ;
#876 = EDGE_LOOP ( 'NONE', ( #744, #911, #664, #301, #1304, #355, #978, #1076, #1346, #1338, #1187 ) ) ;
#877 = LINE ( 'NONE', #976, #50 ) ;
#878 = DIRECTION ( 'NONE',  ( -0.0000000000000000000, -0.0000000000000000000, -1.000000000000000000 ) ) ;
#879 = DIRECTION ( 'NONE',  ( 1.000000000000000000, -0.0000000000000000000, 0.0000000000000000000 ) ) ;
#880 = ORIENTED_EDGE ( 'NONE', *, *, #956, .F. ) ;
#881 = VECTOR ( 'NONE', #1081, 1000.000000000000000 ) ;
#882 = ORIENTED_EDGE ( 'NONE', *, *, #414, .T. ) ;
#883 = AXIS2_PLACEMENT_3D ( 'NONE', #454, #458, #559 ) ;
#884 = DIRECTION ( 'NONE',  ( -1.000000000000000000, 0.0000000000000000000, -0.0000000000000000000 ) ) ;
#885 = EDGE_CURVE ( 'NONE', #647, #438, #727, .T. ) ;
#886 = CARTESIAN_POINT ( 'NONE',  ( 0.0000000000000000000, 0.5500000000000000400, -1.575000000000000000 ) ) ;
#887 = DIRECTION ( 'NONE',  ( 0.0000000000000000000, -0.0000000000000000000, -1.000000000000000000 ) ) ;
#888 = DIRECTION ( 'NONE',  ( 0.0000000000000000000, -1.000000000000000000, -0.0000000000000000000 ) ) ;
#889 = EDGE_CURVE ( 'NONE', #695, #904, #413, .T. ) ;
#890 =( GEOMETRIC_REPRESENTATION_CONTEXT ( 3 ) GLOBAL_UNCERTAINTY_ASSIGNED_CONTEXT ( ( #196 ) ) GLOBAL_UNIT_ASSIGNED_CONTEXT ( ( #847, #898, #937 ) ) REPRESENTATION_CONTEXT ( 'NONE', 'WORKASPACE' ) );
#891 = DIRECTION ( 'NONE',  ( 0.0000000000000000000, 0.0000000000000000000, 1.000000000000000000 ) ) ;
#892 = VECTOR ( 'NONE', #973, 1000.000000000000000 ) ;
#893 = ORIENTED_EDGE ( 'NONE', *, *, #961, .T. ) ;
#894 = DIRECTION ( 'NONE',  ( -0.0000000000000000000, -0.0000000000000000000, 1.000000000000000000 ) ) ;
#895 = EDGE_LOOP ( 'NONE', ( #244, #21, #1175, #350 ) ) ;
#896 = LINE ( 'NONE', #222, #608 ) ;
#897 = VECTOR ( 'NONE', #1052, 1000.000000000000000 ) ;
#898 =( NAMED_UNIT ( * ) PLANE_ANGLE_UNIT ( ) SI_UNIT ( $, .RADIAN. ) );
#899 = CARTESIAN_POINT ( 'NONE',  ( -3.085000000000000000, 0.4600000000000000200, -1.575000000000000000 ) ) ;
#900 = DIRECTION ( 'NONE',  ( 0.0000000000000000000, 0.0000000000000000000, 1.000000000000000000 ) ) ;
#901 = CARTESIAN_POINT ( 'NONE',  ( -1.374999999999999800, -0.4400000000000000000, 1.575000000000000000 ) ) ;
#902 = EDGE_CURVE ( 'NONE', #644, #1095, #1218, .T. ) ;
#903 = VECTOR ( 'NONE', #940, 1000.000000000000000 ) ;
#904 = VERTEX_POINT ( 'NONE', #700 ) ;
#905 = LINE ( 'NONE', #1119, #626 ) ;
#906 = EDGE_CURVE ( 'NONE', #629, #313, #905, .T. ) ;
#907 = DIRECTION ( 'NONE',  ( -1.000000000000000000, 0.0000000000000000000, 0.0000000000000000000 ) ) ;
#908 = ORIENTED_EDGE ( 'NONE', *, *, #253, .T. ) ;
#909 = VERTEX_POINT ( 'NONE', #1219 ) ;
#910 = VECTOR ( 'NONE', #136, 1000.000000000000000 ) ;
#911 = ORIENTED_EDGE ( 'NONE', *, *, #1168, .F. ) ;
#912 = EDGE_LOOP ( 'NONE', ( #628, #1302, #567, #1276 ) ) ;
#913 = LINE ( 'NONE', #387, #881 ) ;
#914 = ORIENTED_EDGE ( 'NONE', *, *, #987, .F. ) ;
#915 = DIRECTION ( 'NONE',  ( 1.000000000000000000, -0.0000000000000000000, 0.0000000000000000000 ) ) ;
#916 =( GEOMETRIC_REPRESENTATION_CONTEXT ( 3 ) GLOBAL_UNCERTAINTY_ASSIGNED_CONTEXT ( ( #816 ) ) GLOBAL_UNIT_ASSIGNED_CONTEXT ( ( #169, #131, #652 ) ) REPRESENTATION_CONTEXT ( 'NONE', 'WORKASPACE' ) );
#917 = DIRECTION ( 'NONE',  ( 0.0000000000000000000, 1.000000000000000000, -0.0000000000000000000 ) ) ;
#918 = ADVANCED_FACE ( 'NONE', ( #349 ), #1116, .T. ) ;
#919 =( NAMED_UNIT ( * ) SI_UNIT ( $, .STERADIAN. ) SOLID_ANGLE_UNIT ( ) );
#920 = CARTESIAN_POINT ( 'NONE',  ( 2.575000000000000200, 0.5500000000000000400, 1.600000000000000100 ) ) ;
#921 = DIRECTION ( 'NONE',  ( 1.000000000000000000, 0.0000000000000000000, 0.0000000000000000000 ) ) ;
#922 = AXIS2_PLACEMENT_3D ( 'NONE', #10, #1266, #219 ) ;
#923 = LINE ( 'NONE', #133, #892 ) ;
#924 = VERTEX_POINT ( 'NONE', #1014 ) ;
#925 = VERTEX_POINT ( 'NONE', #795 ) ;
#926 = VECTOR ( 'NONE', #1039, 1000.000000000000000 ) ;
#927 = ADVANCED_FACE ( 'NONE', ( #874 ), #690, .T. ) ;
#928 = ORIENTED_EDGE ( 'NONE', *, *, #263, .F. ) ;
#929 = VECTOR ( 'NONE', #939, 1000.000000000000000 ) ;
#930 = CARTESIAN_POINT ( 'NONE',  ( 3.085000000000000000, -0.5500000000000000400, -1.575000000000000000 ) ) ;
#931 = ORIENTED_EDGE ( 'NONE', *, *, #806, .F. ) ;
#932 = DIRECTION ( 'NONE',  ( 0.0000000000000000000, 0.0000000000000000000, 1.000000000000000000 ) ) ;
#933 = DIRECTION ( 'NONE',  ( -1.000000000000000000, 0.0000000000000000000, 0.0000000000000000000 ) ) ;
#934 = EDGE_CURVE ( 'NONE', #726, #661, #1155, .T. ) ;
#935 = ADVANCED_FACE ( 'NONE', ( #944 ), #174, .T. ) ;
#936 = CARTESIAN_POINT ( 'NONE',  ( -1.465000000000000100, -0.5500000000000000400, 5.771519999999999800 ) ) ;
#937 =( NAMED_UNIT ( * ) SI_UNIT ( $, .STERADIAN. ) SOLID_ANGLE_UNIT ( ) );
#938 = CARTESIAN_POINT ( 'NONE',  ( 3.174999999999999800, -0.5500000000000000400, -1.575000000000000000 ) ) ;
#939 = DIRECTION ( 'NONE',  ( 0.0000000000000000000, 0.0000000000000000000, -1.000000000000000000 ) ) ;
#940 = DIRECTION ( 'NONE',  ( -0.0000000000000000000, 1.000000000000000000, 0.0000000000000000000 ) ) ;
#941 = VECTOR ( 'NONE', #638, 1000.000000000000000 ) ;
#942 = CARTESIAN_POINT ( 'NONE',  ( 2.890000000000000100, 0.0000000000000000000, -1.575000000000000000 ) ) ;
#943 = ORIENTED_EDGE ( 'NONE', *, *, #294, .T. ) ;
#944 = FACE_OUTER_BOUND ( 'NONE', #123, .T. ) ;
#945 = AXIS2_PLACEMENT_3D ( 'NONE', #899, #790, #68 ) ;
#946 = ORIENTED_EDGE ( 'NONE', *, *, #832, .T. ) ;
#947 = EDGE_LOOP ( 'NONE', ( #106, #482, #289, #366 ) ) ;
#948 = VECTOR ( 'NONE', #443, 1000.000000000000000 ) ;
#949 = VECTOR ( 'NONE', #1211, 1000.000000000000000 ) ;
#950 = CARTESIAN_POINT ( 'NONE',  ( -3.174999999999999800, 0.4600000000000000200, -1.575000000000000000 ) ) ;
#951 = VERTEX_POINT ( 'NONE', #477 ) ;
#952 = CARTESIAN_POINT ( 'NONE',  ( 3.174999999999999800, 0.4600000000000000200, 1.575000000000000000 ) ) ;
#953 = DIRECTION ( 'NONE',  ( 0.0000000000000000000, -0.0000000000000000000, -1.000000000000000000 ) ) ;
#954 = AXIS2_PLACEMENT_3D ( 'NONE', #57, #894, #783 ) ;
#955 = DIRECTION ( 'NONE',  ( -1.000000000000000000, 0.0000000000000000000, -0.0000000000000000000 ) ) ;
#956 = EDGE_CURVE ( 'NONE', #839, #1090, #75, .T. ) ;
#957 = DIRECTION ( 'NONE',  ( -0.0000000000000000000, -0.0000000000000000000, -1.000000000000000000 ) ) ;
#958 = DIRECTION ( 'NONE',  ( 0.0000000000000000000, -0.0000000000000000000, -1.000000000000000000 ) ) ;
#959 = VECTOR ( 'NONE', #457, 1000.000000000000000 ) ;
#960 = ORIENTED_EDGE ( 'NONE', *, *, #341, .F. ) ;
#961 = EDGE_CURVE ( 'NONE', #129, #1138, #589, .T. ) ;
#962 = EDGE_LOOP ( 'NONE', ( #549, #1115, #370, #1217 ) ) ;
#963 = VECTOR ( 'NONE', #1055, 1000.000000000000000 ) ;
#964 = DIRECTION ( 'NONE',  ( 0.0000000000000000000, 0.0000000000000000000, 1.000000000000000000 ) ) ;
#965 = EDGE_LOOP ( 'NONE', ( #1207, #376, #1045, #568 ) ) ;
#966 = VECTOR ( 'NONE', #98, 1000.000000000000000 ) ;
#967 = CARTESIAN_POINT ( 'NONE',  ( 3.174999999999999800, -0.4600000000000000200, -1.575000000000000000 ) ) ;
#968 = EDGE_LOOP ( 'NONE', ( #189, #840, #1072, #234 ) ) ;
#969 = CARTESIAN_POINT ( 'NONE',  ( -3.064999999999999900, -0.4400000000000000000, 1.575000000000000000 ) ) ;
#970 = DIRECTION ( 'NONE',  ( 0.0000000000000000000, 0.0000000000000000000, -1.000000000000000000 ) ) ;
#971 = AXIS2_PLACEMENT_3D ( 'NONE', #20, #1270, #741 ) ;
#972 = CARTESIAN_POINT ( 'NONE',  ( 2.589999999999999900, 0.5500000000000000400, 1.254999999999999900 ) ) ;
#973 = DIRECTION ( 'NONE',  ( -0.0000000000000000000, -0.0000000000000000000, -1.000000000000000000 ) ) ;
#974 = DIRECTION ( 'NONE',  ( 1.000000000000000000, 0.0000000000000000000, -0.0000000000000000000 ) ) ;
#975 = LINE ( 'NONE', #736, #941 ) ;
#976 = CARTESIAN_POINT ( 'NONE',  ( 1.375000000000000000, 0.0000000000000000000, 1.575000000000000000 ) ) ;
#977 = DIRECTION ( 'NONE',  ( 1.000000000000000000, 0.0000000000000000000, 0.0000000000000000000 ) ) ;
#978 = ORIENTED_EDGE ( 'NONE', *, *, #720, .T. ) ;
#979 = VECTOR ( 'NONE', #283, 1000.000000000000000 ) ;
#980 = ORIENTED_EDGE ( 'NONE', *, *, #1166, .T. ) ;
#981 = FACE_OUTER_BOUND ( 'NONE', #606, .T. ) ;
#982 = EDGE_CURVE ( 'NONE', #1058, #396, #377, .T. ) ;
#983 = PLANE ( 'NONE',  #54 ) ;
#984 = LINE ( 'NONE', #267, #949 ) ;
#985 = EDGE_LOOP ( 'NONE', ( #345, #685, #625, #1011 ) ) ;
#986 = CARTESIAN_POINT ( 'NONE',  ( -2.589999999999999900, 0.4400000000000000000, -1.575000000000000000 ) ) ;
#987 = EDGE_CURVE ( 'NONE', #1286, #575, #46, .T. ) ;
#988 = CARTESIAN_POINT ( 'NONE',  ( -1.375000000000000000, -0.4600000000000000200, 1.575000000000000000 ) ) ;
#989 = DIRECTION ( 'NONE',  ( 1.000000000000000000, -0.0000000000000000000, 0.0000000000000000000 ) ) ;
#990 = CARTESIAN_POINT ( 'NONE',  ( 3.174999999999999800, 0.5500000000000000400, 1.415000000000000300 ) ) ;
#991 = CARTESIAN_POINT ( 'NONE',  ( 2.589999999999999900, 0.4400000000000000000, -1.575000000000000000 ) ) ;
#992 = DIRECTION ( 'NONE',  ( 0.0000000000000000000, 0.0000000000000000000, 1.000000000000000000 ) ) ;
#993 = CARTESIAN_POINT ( 'NONE',  ( 2.575000000000000200, 0.4400000000000000000, 1.415000000000000000 ) ) ;
#994 = VECTOR ( 'NONE', #357, 1000.000000000000000 ) ;
#995 = ORIENTED_EDGE ( 'NONE', *, *, #134, .T. ) ;
#996 = ORIENTED_EDGE ( 'NONE', *, *, #906, .F. ) ;
#997 = VECTOR ( 'NONE', #750, 1000.000000000000000 ) ;
#998 = DIRECTION ( 'NONE',  ( -1.000000000000000000, 0.0000000000000000000, 0.0000000000000000000 ) ) ;
#999 = VERTEX_POINT ( 'NONE', #1208 ) ;
#1000 = LINE ( 'NONE', #299, #1281 ) ;
#1001 = ORIENTED_EDGE ( 'NONE', *, *, #1053, .T. ) ;
#1002 = CARTESIAN_POINT ( 'NONE',  ( 3.174999999999999800, 0.5500000000000000400, -1.575000000000000000 ) ) ;
#1003 = CARTESIAN_POINT ( 'NONE',  ( -3.085000000000000000, -0.4600000000000000200, 5.771519999999999800 ) ) ;
#1004 = CARTESIAN_POINT ( 'NONE',  ( 3.064999999999999900, -0.4400000000000000000, 1.600000000000000100 ) ) ;
#1005 = DIRECTION ( 'NONE',  ( 1.000000000000000000, 0.0000000000000000000, -0.0000000000000000000 ) ) ;
#1006 = EDGE_CURVE ( 'NONE', #829, #1319, #1089, .T. ) ;
#1007 = DIRECTION ( 'NONE',  ( 0.0000000000000000000, 0.0000000000000000000, 1.000000000000000000 ) ) ;
#1008 = FACE_OUTER_BOUND ( 'NONE', #284, .T. ) ;
#1009 = ORIENTED_EDGE ( 'NONE', *, *, #84, .F. ) ;
#1010 = LINE ( 'NONE', #388, #760 ) ;
#1011 = ORIENTED_EDGE ( 'NONE', *, *, #386, .T. ) ;
#1012 = FACE_OUTER_BOUND ( 'NONE', #825, .T. ) ;
#1013 = VECTOR ( 'NONE', #462, 1000.000000000000000 ) ;
#1014 = CARTESIAN_POINT ( 'NONE',  ( -3.174999999999999800, 0.4600000000000000200, 1.575000000000000000 ) ) ;
#1015 = ORIENTED_EDGE ( 'NONE', *, *, #1296, .F. ) ;
#1016 = AXIS2_PLACEMENT_3D ( 'NONE', #587, #585, #1214 ) ;
#1017 = CARTESIAN_POINT ( 'NONE',  ( -1.465000000000000100, -0.4600000000000000200, -1.575000000000000000 ) ) ;
#1018 = CARTESIAN_POINT ( 'NONE',  ( 3.064999999999999900, -0.4400000000000000000, -1.600000000000000100 ) ) ;
#1019 = AXIS2_PLACEMENT_3D ( 'NONE', #1003, #1298, #1209 ) ;
#1020 = ADVANCED_FACE ( 'NONE', ( #530 ), #573, .F. ) ;
#1021 = VECTOR ( 'NONE', #992, 1000.000000000000000 ) ;
#1022 = EDGE_CURVE ( 'NONE', #951, #695, #257, .T. ) ;
#1023 = DIRECTION ( 'NONE',  ( 0.0000000000000000000, 1.000000000000000000, -0.0000000000000000000 ) ) ;
#1024 = ORIENTED_EDGE ( 'NONE', *, *, #409, .T. ) ;
#1025 = VERTEX_POINT ( 'NONE', #56 ) ;
#1026 = VECTOR ( 'NONE', #1284, 1000.000000000000000 ) ;
#1027 = CARTESIAN_POINT ( 'NONE',  ( 3.174999999999999800, 0.5500000000000000400, -1.600000000000000100 ) ) ;
#1028 = ORIENTED_EDGE ( 'NONE', *, *, #676, .F. ) ;
#1029 = FACE_OUTER_BOUND ( 'NONE', #1088, .T. ) ;
#1030 = ORIENTED_EDGE ( 'NONE', *, *, #863, .T. ) ;
#1031 = DIRECTION ( 'NONE',  ( 0.0000000000000000000, -0.0000000000000000000, -1.000000000000000000 ) ) ;
#1032 = EDGE_CURVE ( 'NONE', #564, #501, #561, .T. ) ;
#1033 = ADVANCED_FACE ( 'NONE', ( #494 ), #166, .T. ) ;
#1034 = CARTESIAN_POINT ( 'NONE',  ( -1.465000000000000100, -0.4600000000000000200, 5.771519999999999800 ) ) ;
#1035 = DIRECTION ( 'NONE',  ( 1.000000000000000000, 0.0000000000000000000, -0.0000000000000000000 ) ) ;
#1036 = CARTESIAN_POINT ( 'NONE',  ( 2.589999999999999900, 0.5500000000000000400, 1.255000000000000100 ) ) ;
#1037 = ADVANCED_FACE ( 'NONE', ( #776 ), #1199, .F. ) ;
#1038 = DIRECTION ( 'NONE',  ( 0.0000000000000000000, -1.000000000000000000, -0.0000000000000000000 ) ) ;
#1039 = DIRECTION ( 'NONE',  ( 1.000000000000000000, -0.0000000000000000000, 0.0000000000000000000 ) ) ;
#1040 = DIRECTION ( 'NONE',  ( 0.0000000000000000000, 0.0000000000000000000, -1.000000000000000000 ) ) ;
#1041 = AXIS2_PLACEMENT_3D ( 'NONE', #535, #228, #953 ) ;
#1042 = FACE_OUTER_BOUND ( 'NONE', #1066, .T. ) ;
#1043 = VERTEX_POINT ( 'NONE', #156 ) ;
#1044 = VECTOR ( 'NONE', #1031, 1000.000000000000000 ) ;
#1045 = ORIENTED_EDGE ( 'NONE', *, *, #1337, .T. ) ;
#1046 = LINE ( 'NONE', #850, #210 ) ;
#1047 = DIRECTION ( 'NONE',  ( 0.0000000000000000000, 0.0000000000000000000, 1.000000000000000000 ) ) ;
#1048 = VECTOR ( 'NONE', #53, 1000.000000000000000 ) ;
#1049 = PLANE ( 'NONE',  #714 ) ;
#1050 = VERTEX_POINT ( 'NONE', #463 ) ;
#1051 = EDGE_CURVE ( 'NONE', #726, #60, #224, .T. ) ;
#1052 = DIRECTION ( 'NONE',  ( 1.000000000000000000, 0.0000000000000000000, -0.0000000000000000000 ) ) ;
#1053 = EDGE_CURVE ( 'NONE', #514, #324, #1121, .T. ) ;
#1054 = CARTESIAN_POINT ( 'NONE',  ( 1.375000000000000000, -0.5500000000000000400, -1.575000000000000000 ) ) ;
#1055 = DIRECTION ( 'NONE',  ( -1.000000000000000000, 0.0000000000000000000, -0.0000000000000000000 ) ) ;
#1056 = CARTESIAN_POINT ( 'NONE',  ( -2.575000000000000200, 0.5500000000000000400, -1.415000000000000000 ) ) ;
#1057 = PLANE ( 'NONE',  #1041 ) ;
#1058 = VERTEX_POINT ( 'NONE', #1098 ) ;
#1059 = VECTOR ( 'NONE', #473, 1000.000000000000000 ) ;
#1060 = ORIENTED_EDGE ( 'NONE', *, *, #885, .F. ) ;
#1061 = ORIENTED_EDGE ( 'NONE', *, *, #541, .T. ) ;
#1062 = LINE ( 'NONE', #1287, #227 ) ;
#1063 = ORIENTED_EDGE ( 'NONE', *, *, #182, .F. ) ;
#1064 = VECTOR ( 'NONE', #1133, 1000.000000000000000 ) ;
#1065 = PLANE ( 'NONE',  #824 ) ;
#1066 = EDGE_LOOP ( 'NONE', ( #17, #1280, #1201, #680 ) ) ;
#1067 = CARTESIAN_POINT ( 'NONE',  ( -3.174999999999999800, -0.4600000000000000200, -1.575000000000000000 ) ) ;
#1068 = UNCERTAINTY_MEASURE_WITH_UNIT (LENGTH_MEASURE( 1.000000000000000100E-005 ), #67, 'distance_accuracy_value', 'NONE');
#1069 = CARTESIAN_POINT ( 'NONE',  ( -2.575000000000000200, 0.4400000000000000000, 1.600000000000000100 ) ) ;
#1070 = DIRECTION ( 'NONE',  ( -0.0000000000000000000, 1.000000000000000000, 0.0000000000000000000 ) ) ;
#1071 = PLANE ( 'NONE',  #1128 ) ;
#1072 = ORIENTED_EDGE ( 'NONE', *, *, #1099, .F. ) ;
#1073 = EDGE_CURVE ( 'NONE', #762, #465, #742, .T. ) ;
#1074 = LINE ( 'NONE', #613, #29 ) ;
#1075 = DIRECTION ( 'NONE',  ( 0.0000000000000000000, 0.0000000000000000000, -1.000000000000000000 ) ) ;
#1076 = ORIENTED_EDGE ( 'NONE', *, *, #344, .F. ) ;
#1077 = VECTOR ( 'NONE', #955, 1000.000000000000000 ) ;
#1078 = DIRECTION ( 'NONE',  ( 0.0000000000000000000, -1.000000000000000000, -0.0000000000000000000 ) ) ;
#1079 = CARTESIAN_POINT ( 'NONE',  ( 0.0000000000000000000, 0.4400000000000000000, 1.575000000000000000 ) ) ;
#1080 = LINE ( 'NONE', #474, #793 ) ;
#1081 = DIRECTION ( 'NONE',  ( -0.0000000000000000000, -0.0000000000000000000, 1.000000000000000000 ) ) ;
#1082 = ORIENTED_EDGE ( 'NONE', *, *, #749, .T. ) ;
#1083 = DIRECTION ( 'NONE',  ( 1.000000000000000000, 0.0000000000000000000, 0.0000000000000000000 ) ) ;
#1084 = CARTESIAN_POINT ( 'NONE',  ( -2.575000000000000200, 0.5500000000000000400, 1.415000000000000000 ) ) ;
#1085 = CARTESIAN_POINT ( 'NONE',  ( 3.064999999999999900, -0.4400000000000000000, 1.600000000000000100 ) ) ;
#1086 = DIRECTION ( 'NONE',  ( -1.000000000000000000, 0.0000000000000000000, -0.0000000000000000000 ) ) ;
#1087 = CARTESIAN_POINT ( 'NONE',  ( -3.064999999999999900, -0.4400000000000000000, 1.600000000000000100 ) ) ;
#1088 = EDGE_LOOP ( 'NONE', ( #160, #15, #1329, #848 ) ) ;
#1089 = LINE ( 'NONE', #1325, #801 ) ;
#1090 = VERTEX_POINT ( 'NONE', #1196 ) ;
#1091 = DIRECTION ( 'NONE',  ( 0.0000000000000000000, 0.0000000000000000000, -1.000000000000000000 ) ) ;
#1092 = EDGE_LOOP ( 'NONE', ( #14, #260, #436, #395 ) ) ;
#1093 = LINE ( 'NONE', #151, #565 ) ;
#1094 = STYLED_ITEM ( 'NONE', ( #322 ), #184 ) ;
#1095 = VERTEX_POINT ( 'NONE', #566 ) ;
#1096 = ORIENTED_EDGE ( 'NONE', *, *, #528, .F. ) ;
#1097 = ORIENTED_EDGE ( 'NONE', *, *, #1117, .F. ) ;
#1098 = CARTESIAN_POINT ( 'NONE',  ( 2.589999999999999900, 0.5500000000000000400, -1.254999999999999900 ) ) ;
#1099 = EDGE_CURVE ( 'NONE', #268, #747, #464, .T. ) ;
#1100 = CARTESIAN_POINT ( 'NONE',  ( 3.085000000000000000, -0.5500000000000000400, 1.575000000000000000 ) ) ;
#1101 = CARTESIAN_POINT ( 'NONE',  ( -3.174999999999999800, 0.5500000000000000400, -1.575000000000000000 ) ) ;
#1102 = CARTESIAN_POINT ( 'NONE',  ( -3.064999999999999900, -0.4400000000000000000, 1.600000000000000100 ) ) ;
#1103 = EDGE_CURVE ( 'NONE', #762, #703, #187, .T. ) ;
#1104 = PRODUCT_DEFINITION_SHAPE ( 'NONE', 'NONE',  #1171 ) ;
#1105 = AXIS2_PLACEMENT_3D ( 'NONE', #117, #1253, #1268 ) ;
#1106 = DIRECTION ( 'NONE',  ( -0.0000000000000000000, 1.000000000000000000, 0.0000000000000000000 ) ) ;
#1107 = DIRECTION ( 'NONE',  ( 1.000000000000000000, 0.0000000000000000000, -0.0000000000000000000 ) ) ;
#1108 = ORIENTED_EDGE ( 'NONE', *, *, #771, .T. ) ;
#1109 = LINE ( 'NONE', #406, #926 ) ;
#1110 = DIRECTION ( 'NONE',  ( 0.0000000000000000000, -1.000000000000000000, -0.0000000000000000000 ) ) ;
#1111 = ORIENTED_EDGE ( 'NONE', *, *, #1193, .F. ) ;
#1112 = VECTOR ( 'NONE', #232, 1000.000000000000000 ) ;
#1113 = DIRECTION ( 'NONE',  ( 1.000000000000000000, -0.0000000000000000000, 0.0000000000000000000 ) ) ;
#1114 = VECTOR ( 'NONE', #265, 1000.000000000000000 ) ;
#1115 = ORIENTED_EDGE ( 'NONE', *, *, #577, .T. ) ;
#1116 = PLANE ( 'NONE',  #869 ) ;
#1117 = EDGE_CURVE ( 'NONE', #1154, #610, #1274, .T. ) ;
#1118 = EDGE_CURVE ( 'NONE', #1050, #735, #707, .T. ) ;
#1119 = CARTESIAN_POINT ( 'NONE',  ( 3.064999999999999900, 0.4400000000000000000, 1.600000000000000100 ) ) ;
#1120 = VERTEX_POINT ( 'NONE', #1087 ) ;
#1121 = LINE ( 'NONE', #1197, #1339 ) ;
#1122 = ORIENTED_EDGE ( 'NONE', *, *, #121, .T. ) ;
#1123 = ORIENTED_EDGE ( 'NONE', *, *, #399, .T. ) ;
#1124 = FACE_OUTER_BOUND ( 'NONE', #537, .T. ) ;
#1125 = ORIENTED_EDGE ( 'NONE', *, *, #1, .T. ) ;
#1126 = CARTESIAN_POINT ( 'NONE',  ( 0.0000000000000000000, -0.4400000000000000000, -1.575000000000000000 ) ) ;
#1127 = ORIENTED_EDGE ( 'NONE', *, *, #1232, .T. ) ;
#1128 = AXIS2_PLACEMENT_3D ( 'NONE', #250, #1083, #1075 ) ;
#1129 = PLANE ( 'NONE',  #523 ) ;
#1130 = DIRECTION ( 'NONE',  ( 0.0000000000000000000, 0.0000000000000000000, 1.000000000000000000 ) ) ;
#1131 = ADVANCED_FACE ( 'NONE', ( #677 ), #347, .T. ) ;
#1132 = DIRECTION ( 'NONE',  ( 1.000000000000000000, 0.0000000000000000000, 0.0000000000000000000 ) ) ;
#1133 = DIRECTION ( 'NONE',  ( 0.0000000000000000000, 1.000000000000000000, -0.0000000000000000000 ) ) ;
#1134 = AXIS2_PLACEMENT_3D ( 'NONE', #743, #24, #752 ) ;
#1135 = VECTOR ( 'NONE', #340, 1000.000000000000000 ) ;
#1136 = CARTESIAN_POINT ( 'NONE',  ( -3.085000000000000000, -0.5500000000000000400, -1.575000000000000000 ) ) ;
#1137 = EDGE_LOOP ( 'NONE', ( #580, #1001, #588, #980 ) ) ;
#1138 = VERTEX_POINT ( 'NONE', #1085 ) ;
#1139 = VECTOR ( 'NONE', #831, 1000.000000000000000 ) ;
#1140 = ADVANCED_FACE ( 'NONE', ( #1200 ), #40, .F. ) ;
#1141 = EDGE_LOOP ( 'NONE', ( #351, #1108, #1264, #114 ) ) ;
#1142 = ORIENTED_EDGE ( 'NONE', *, *, #834, .F. ) ;
#1143 = VECTOR ( 'NONE', #7, 1000.000000000000000 ) ;
#1144 = VECTOR ( 'NONE', #1223, 1000.000000000000000 ) ;
#1145 = PLANE ( 'NONE',  #170 ) ;
#1146 = EDGE_CURVE ( 'NONE', #1297, #1050, #429, .T. ) ;
#1147 = DIRECTION ( 'NONE',  ( 0.0000000000000000000, -0.0000000000000000000, -1.000000000000000000 ) ) ;
#1148 = ADVANCED_FACE ( 'NONE', ( #642 ), #87, .T. ) ;
#1149 = CARTESIAN_POINT ( 'NONE',  ( -3.064999999999999900, 0.0000000000000000000, -1.600000000000000100 ) ) ;
#1150 = CARTESIAN_POINT ( 'NONE',  ( -3.174999999999999800, -0.5500000000000000400, 1.575000000000000000 ) ) ;
#1151 = DIRECTION ( 'NONE',  ( 0.0000000000000000000, 0.0000000000000000000, -1.000000000000000000 ) ) ;
#1152 = DIRECTION ( 'NONE',  ( 0.0000000000000000000, 0.0000000000000000000, -1.000000000000000000 ) ) ;
#1153 = FACE_OUTER_BOUND ( 'NONE', #175, .T. ) ;
#1154 = VERTEX_POINT ( 'NONE', #137 ) ;
#1155 = CIRCLE ( 'NONE', #945, 0.08999999999999980200 ) ;
#1156 = DIRECTION ( 'NONE',  ( -1.000000000000000000, -0.0000000000000000000, -0.0000000000000000000 ) ) ;
#1157 = VERTEX_POINT ( 'NONE', #765 ) ;
#1158 = VERTEX_POINT ( 'NONE', #38 ) ;
#1159 = LINE ( 'NONE', #1084, #592 ) ;
#1160 = VERTEX_POINT ( 'NONE', #656 ) ;
#1161 = SURFACE_STYLE_FILL_AREA ( #599 ) ;
#1162 = DIRECTION ( 'NONE',  ( -1.000000000000000000, -0.0000000000000000000, 0.0000000000000000000 ) ) ;
#1163 = VERTEX_POINT ( 'NONE', #1293 ) ;
#1164 = PRESENTATION_LAYER_ASSIGNMENT (  '', '', ( #1094 ) ) ;
#1165 = CARTESIAN_POINT ( 'NONE',  ( -2.890000000000000100, 0.5500000000000000400, -1.575000000000000000 ) ) ;
#1166 = EDGE_CURVE ( 'NONE', #710, #1283, #1169, .T. ) ;
#1167 = CARTESIAN_POINT ( 'NONE',  ( 2.575000000000000200, 0.5500000000000000400, 1.415000000000000000 ) ) ;
#1168 = EDGE_CURVE ( 'NONE', #363, #324, #1236, .T. ) ;
#1169 = LINE ( 'NONE', #1180, #362 ) ;
#1170 = DIRECTION ( 'NONE',  ( -0.0000000000000000000, -0.0000000000000000000, 1.000000000000000000 ) ) ;
#1171 = PRODUCT_DEFINITION ( 'UNKNOWN', '', #1246, #852 ) ;
#1172 = ORIENTED_EDGE ( 'NONE', *, *, #369, .T. ) ;
#1173 = ORIENTED_EDGE ( 'NONE', *, *, #622, .F. ) ;
#1174 = CIRCLE ( 'NONE', #755, 0.08999999999999980200 ) ;
#1175 = ORIENTED_EDGE ( 'NONE', *, *, #461, .F. ) ;
#1176 = LINE ( 'NONE', #833, #1143 ) ;
#1177 = DIRECTION ( 'NONE',  ( 0.0000000000000000000, 0.0000000000000000000, -1.000000000000000000 ) ) ;
#1178 = CARTESIAN_POINT ( 'NONE',  ( -1.375000000000000000, 0.0000000000000000000, 1.575000000000000000 ) ) ;
#1179 = CARTESIAN_POINT ( 'NONE',  ( 1.465000000000000100, -0.5500000000000000400, -1.575000000000000000 ) ) ;
#1180 = CARTESIAN_POINT ( 'NONE',  ( 2.890000000000000100, 0.5500000000000000400, -1.575000000000000000 ) ) ;
#1181 = DIRECTION ( 'NONE',  ( 0.0000000000000000000, 1.000000000000000000, 0.0000000000000000000 ) ) ;
#1182 = CARTESIAN_POINT ( 'NONE',  ( -2.589999999999999900, 0.5500000000000000400, -1.254999999999999900 ) ) ;
#1183 = LINE ( 'NONE', #1054, #903 ) ;
#1184 = ORIENTED_EDGE ( 'NONE', *, *, #554, .F. ) ;
#1185 = EDGE_CURVE ( 'NONE', #595, #909, #923, .T. ) ;
#1186 = VECTOR ( 'NONE', #1007, 1000.000000000000000 ) ;
#1187 = ORIENTED_EDGE ( 'NONE', *, *, #253, .F. ) ;
#1188 = ORIENTED_EDGE ( 'NONE', *, *, #1073, .T. ) ;
#1189 = VECTOR ( 'NONE', #1078, 1000.000000000000000 ) ;
#1190 = PLANE ( 'NONE',  #335 ) ;
#1191 = CARTESIAN_POINT ( 'NONE',  ( -2.575000000000000200, 0.5500000000000000400, -1.415000000000000000 ) ) ;
#1192 = ORIENTED_EDGE ( 'NONE', *, *, #84, .T. ) ;
#1193 = EDGE_CURVE ( 'NONE', #717, #12, #393, .T. ) ;
#1194 = VECTOR ( 'NONE', #1330, 1000.000000000000000 ) ;
#1195 = VERTEX_POINT ( 'NONE', #33 ) ;
#1196 = CARTESIAN_POINT ( 'NONE',  ( -3.064999999999999900, 0.4400000000000000000, 1.600000000000000100 ) ) ;
#1197 = CARTESIAN_POINT ( 'NONE',  ( 2.890000000000000100, 0.4400000000000000000, 1.600000000000000100 ) ) ;
#1198 = DIRECTION ( 'NONE',  ( -0.0000000000000000000, 1.000000000000000000, 0.0000000000000000000 ) ) ;
#1199 = PLANE ( 'NONE',  #280 ) ;
#1200 = FACE_OUTER_BOUND ( 'NONE', #495, .T. ) ;
#1201 = ORIENTED_EDGE ( 'NONE', *, *, #440, .F. ) ;
#1202 = CARTESIAN_POINT ( 'NONE',  ( -1.375000000000000000, 0.0000000000000000000, -1.575000000000000000 ) ) ;
#1203 = ORIENTED_EDGE ( 'NONE', *, *, #211, .T. ) ;
#1204 = LINE ( 'NONE', #738, #681 ) ;
#1205 = ORIENTED_EDGE ( 'NONE', *, *, #294, .F. ) ;
#1206 = FACE_OUTER_BOUND ( 'NONE', #912, .T. ) ;
#1207 = ORIENTED_EDGE ( 'NONE', *, *, #1265, .T. ) ;
#1208 = CARTESIAN_POINT ( 'NONE',  ( -3.064999999999999900, 0.4400000000000000000, -1.600000000000000100 ) ) ;
#1209 = DIRECTION ( 'NONE',  ( -1.000000000000000000, 0.0000000000000000000, 0.0000000000000000000 ) ) ;
#1210 = CARTESIAN_POINT ( 'NONE',  ( -3.064999999999999900, 0.4400000000000000000, 1.600000000000000100 ) ) ;
#1211 = DIRECTION ( 'NONE',  ( 0.0000000000000000000, 0.0000000000000000000, -1.000000000000000000 ) ) ;
#1212 = EDGE_CURVE ( 'NONE', #1043, #313, #330, .T. ) ;
#1213 = DIRECTION ( 'NONE',  ( 0.0000000000000000000, 0.0000000000000000000, -1.000000000000000000 ) ) ;
#1214 = DIRECTION ( 'NONE',  ( 1.000000000000000000, 0.0000000000000000000, -0.0000000000000000000 ) ) ;
#1215 = CARTESIAN_POINT ( 'NONE',  ( 0.0000000000000000000, 0.4400000000000000000, -1.575000000000000000 ) ) ;
#1216 = VECTOR ( 'NONE', #819, 1000.000000000000000 ) ;
#1217 = ORIENTED_EDGE ( 'NONE', *, *, #1315, .F. ) ;
#1218 = LINE ( 'NONE', #383, #107 ) ;
#1219 = CARTESIAN_POINT ( 'NONE',  ( 1.375000000000000000, -0.4400000000000000000, -1.575000000000000000 ) ) ;
#1220 = ORIENTED_EDGE ( 'NONE', *, *, #167, .T. ) ;
#1221 = ORIENTED_EDGE ( 'NONE', *, *, #191, .F. ) ;
#1222 = VECTOR ( 'NONE', #856, 1000.000000000000000 ) ;
#1223 = DIRECTION ( 'NONE',  ( -1.000000000000000000, 0.0000000000000000000, -0.0000000000000000000 ) ) ;
#1224 = LINE ( 'NONE', #1322, #354 ) ;
#1225 = AXIS2_PLACEMENT_3D ( 'NONE', #274, #688, #1328 ) ;
#1226 = ORIENTED_EDGE ( 'NONE', *, *, #115, .F. ) ;
#1227 = MANIFOLD_SOLID_BREP ( 'Imported1', #64 ) ;
#1228 = DIRECTION ( 'NONE',  ( 0.0000000000000000000, -1.000000000000000000, -0.0000000000000000000 ) ) ;
#1229 = DIRECTION ( 'NONE',  ( 1.000000000000000000, 0.0000000000000000000, -0.0000000000000000000 ) ) ;
#1230 = PLANE ( 'NONE',  #155 ) ;
#1231 = MECHANICAL_DESIGN_GEOMETRIC_PRESENTATION_REPRESENTATION (  '', ( #1094 ), #1309 ) ;
#1232 = EDGE_CURVE ( 'NONE', #281, #61, #479, .T. ) ;
#1233 = SHAPE_DEFINITION_REPRESENTATION ( #1104, #1321 ) ;
#1234 = ADVANCED_FACE ( 'NONE', ( #1008 ), #1071, .F. ) ;
#1235 = DIRECTION ( 'NONE',  ( -1.000000000000000000, 0.0000000000000000000, 0.0000000000000000000 ) ) ;
#1236 = LINE ( 'NONE', #1079, #605 ) ;
#1237 = ORIENTED_EDGE ( 'NONE', *, *, #531, .F. ) ;
#1238 = VERTEX_POINT ( 'NONE', #754 ) ;
#1239 = FACE_OUTER_BOUND ( 'NONE', #965, .T. ) ;
#1240 = ORIENTED_EDGE ( 'NONE', *, *, #961, .F. ) ;
#1241 = VECTOR ( 'NONE', #1040, 1000.000000000000000 ) ;
#1242 = CARTESIAN_POINT ( 'NONE',  ( 3.085000000000000000, 0.4600000000000000200, 1.575000000000000000 ) ) ;
#1243 = EDGE_CURVE ( 'NONE', #281, #336, #758, .T. ) ;
#1244 = ORIENTED_EDGE ( 'NONE', *, *, #167, .F. ) ;
#1245 = CARTESIAN_POINT ( 'NONE',  ( 3.064999999999999900, 0.4400000000000000000, 1.600000000000000100 ) ) ;
#1246 = PRODUCT_DEFINITION_FORMATION_WITH_SPECIFIED_SOURCE ( 'ANY', '', #1271, .NOT_KNOWN. ) ;
#1247 = ADVANCED_FACE ( 'NONE', ( #1042 ), #654, .T. ) ;
#1248 = DIRECTION ( 'NONE',  ( -0.0000000000000000000, -0.0000000000000000000, 1.000000000000000000 ) ) ;
#1249 = CARTESIAN_POINT ( 'NONE',  ( -3.085000000000000000, 0.5500000000000000400, -1.575000000000000000 ) ) ;
#1250 = ADVANCED_FACE ( 'NONE', ( #171 ), #983, .F. ) ;
#1251 = CARTESIAN_POINT ( 'NONE',  ( -2.890000000000000100, 0.4400000000000000000, 1.600000000000000100 ) ) ;
#1252 = AXIS2_PLACEMENT_3D ( 'NONE', #408, #1047, #308 ) ;
#1253 = DIRECTION ( 'NONE',  ( 0.0000000000000000000, 0.0000000000000000000, 1.000000000000000000 ) ) ;
#1254 = LINE ( 'NONE', #142, #691 ) ;
#1255 = PLANE ( 'NONE',  #1252 ) ;
#1256 = ORIENTED_EDGE ( 'NONE', *, *, #1289, .T. ) ;
#1257 = FACE_OUTER_BOUND ( 'NONE', #529, .T. ) ;
#1258 = DIRECTION ( 'NONE',  ( 0.0000000000000000000, 0.0000000000000000000, 1.000000000000000000 ) ) ;
#1259 = ORIENTED_EDGE ( 'NONE', *, *, #297, .F. ) ;
#1260 = VECTOR ( 'NONE', #1170, 1000.000000000000000 ) ;
#1261 = LINE ( 'NONE', #1215, #212 ) ;
#1262 = CARTESIAN_POINT ( 'NONE',  ( 1.375000000000000000, -0.4600000000000000200, -1.575000000000000000 ) ) ;
#1263 = VERTEX_POINT ( 'NONE', #448 ) ;
#1264 = ORIENTED_EDGE ( 'NONE', *, *, #25, .T. ) ;
#1265 = EDGE_CURVE ( 'NONE', #747, #647, #1254, .T. ) ;
#1266 = DIRECTION ( 'NONE',  ( 0.0000000000000000000, 0.0000000000000000000, -1.000000000000000000 ) ) ;
#1267 = EDGE_CURVE ( 'NONE', #60, #1238, #725, .T. ) ;
#1268 = DIRECTION ( 'NONE',  ( 1.000000000000000000, 0.0000000000000000000, 0.0000000000000000000 ) ) ;
#1269 = CARTESIAN_POINT ( 'NONE',  ( -2.890000000000000100, 0.4400000000000000000, -1.254999999999999900 ) ) ;
#1270 = DIRECTION ( 'NONE',  ( 0.0000000000000000000, 0.0000000000000000000, 1.000000000000000000 ) ) ;
#1271 = PRODUCT ( '3522160KFT', '3522160KFT', '', ( #511 ) ) ;
#1272 = DIRECTION ( 'NONE',  ( -0.0000000000000000000, -0.0000000000000000000, -1.000000000000000000 ) ) ;
#1273 = AXIS2_PLACEMENT_3D ( 'NONE', #761, #1290, #974 ) ;
#1274 = LINE ( 'NONE', #990, #157 ) ;
#1275 = CARTESIAN_POINT ( 'NONE',  ( 1.465000000000000100, -0.4600000000000000200, -5.771519999999999800 ) ) ;
#1276 = ORIENTED_EDGE ( 'NONE', *, *, #1193, .T. ) ;
#1277 = ORIENTED_EDGE ( 'NONE', *, *, #1168, .T. ) ;
#1278 = FACE_OUTER_BOUND ( 'NONE', #1311, .T. ) ;
#1279 = DIRECTION ( 'NONE',  ( 0.0000000000000000000, 0.0000000000000000000, 1.000000000000000000 ) ) ;
#1280 = ORIENTED_EDGE ( 'NONE', *, *, #89, .T. ) ;
#1281 = VECTOR ( 'NONE', #92, 1000.000000000000000 ) ;
#1282 = PLANE ( 'NONE',  #58 ) ;
#1283 = VERTEX_POINT ( 'NONE', #728 ) ;
#1284 = DIRECTION ( 'NONE',  ( -0.0000000000000000000, -1.000000000000000000, 0.0000000000000000000 ) ) ;
#1285 = AXIS2_PLACEMENT_3D ( 'NONE', #439, #649, #27 ) ;
#1286 = VERTEX_POINT ( 'NONE', #201 ) ;
#1287 = CARTESIAN_POINT ( 'NONE',  ( -3.064999999999999900, 0.4400000000000000000, -1.254999999999999900 ) ) ;
#1288 = DIRECTION ( 'NONE',  ( 0.0000000000000000000, 1.000000000000000000, -0.0000000000000000000 ) ) ;
#1289 = EDGE_CURVE ( 'NONE', #60, #924, #411, .T. ) ;
#1290 = DIRECTION ( 'NONE',  ( 0.0000000000000000000, 0.0000000000000000000, 1.000000000000000000 ) ) ;
#1291 = VECTOR ( 'NONE', #582, 1000.000000000000000 ) ;
#1292 = CARTESIAN_POINT ( 'NONE',  ( -1.375000000000000000, -0.4600000000000000200, -1.575000000000000000 ) ) ;
#1293 = CARTESIAN_POINT ( 'NONE',  ( -3.174999999999999800, -0.4600000000000000200, -1.575000000000000000 ) ) ;
#1294 = ORIENTED_EDGE ( 'NONE', *, *, #181, .F. ) ;
#1295 = LINE ( 'NONE', #491, #173 ) ;
#1296 = EDGE_CURVE ( 'NONE', #1157, #262, #975, .T. ) ;
#1297 = VERTEX_POINT ( 'NONE', #8 ) ;
#1298 = DIRECTION ( 'NONE',  ( 0.0000000000000000000, 0.0000000000000000000, -1.000000000000000000 ) ) ;
#1299 = VECTOR ( 'NONE', #547, 1000.000000000000000 ) ;
#1300 = DIRECTION ( 'NONE',  ( -1.000000000000000000, 0.0000000000000000000, -0.0000000000000000000 ) ) ;
#1301 = LINE ( 'NONE', #152, #486 ) ;
#1302 = ORIENTED_EDGE ( 'NONE', *, *, #461, .T. ) ;
#1303 = CARTESIAN_POINT ( 'NONE',  ( 0.0000000000000000000, 0.0000000000000000000, -1.600000000000000100 ) ) ;
#1304 = ORIENTED_EDGE ( 'NONE', *, *, #488, .F. ) ;
#1305 = DIRECTION ( 'NONE',  ( 0.0000000000000000000, 0.0000000000000000000, 1.000000000000000000 ) ) ;
#1306 = DIRECTION ( 'NONE',  ( 0.0000000000000000000, 0.0000000000000000000, 1.000000000000000000 ) ) ;
#1307 = CARTESIAN_POINT ( 'NONE',  ( -3.064999999999999900, 0.4400000000000000000, 1.254999999999999900 ) ) ;
#1308 = LINE ( 'NONE', #178, #1144 ) ;
#1309 =( GEOMETRIC_REPRESENTATION_CONTEXT ( 3 ) GLOBAL_UNCERTAINTY_ASSIGNED_CONTEXT ( ( #434 ) ) GLOBAL_UNIT_ASSIGNED_CONTEXT ( ( #810, #186, #919 ) ) REPRESENTATION_CONTEXT ( 'NONE', 'WORKASPACE' ) );
#1310 = VECTOR ( 'NONE', #884, 1000.000000000000000 ) ;
#1311 = EDGE_LOOP ( 'NONE', ( #73, #449, #81, #398 ) ) ;
#1312 = ORIENTED_EDGE ( 'NONE', *, *, #181, .T. ) ;
#1313 = LINE ( 'NONE', #236, #997 ) ;
#1314 = DIRECTION ( 'NONE',  ( 0.0000000000000000000, 0.0000000000000000000, 1.000000000000000000 ) ) ;
#1315 = EDGE_CURVE ( 'NONE', #661, #924, #139, .T. ) ;
#1316 = ORIENTED_EDGE ( 'NONE', *, *, #277, .F. ) ;
#1317 = VECTOR ( 'NONE', #71, 1000.000000000000000 ) ;
#1318 = DIRECTION ( 'NONE',  ( -0.0000000000000000000, 0.0000000000000000000, 1.000000000000000000 ) ) ;
#1319 = VERTEX_POINT ( 'NONE', #1056 ) ;
#1320 = DIRECTION ( 'NONE',  ( -1.000000000000000000, -0.0000000000000000000, 0.0000000000000000000 ) ) ;
#1321 = ADVANCED_BREP_SHAPE_REPRESENTATION ( '3522160KFT', ( #1227, #1105 ), #470 ) ;
#1322 = CARTESIAN_POINT ( 'NONE',  ( 0.0000000000000000000, -0.4400000000000000000, -1.600000000000000100 ) ) ;
#1323 = EDGE_CURVE ( 'NONE', #692, #909, #1183, .T. ) ;
#1324 = PRODUCT_RELATED_PRODUCT_CATEGORY ( 'part', '', ( #1271 ) ) ;
#1325 = CARTESIAN_POINT ( 'NONE',  ( -2.575000000000000200, 0.4400000000000000000, -1.415000000000000300 ) ) ;
#1326 = DIRECTION ( 'NONE',  ( 1.000000000000000000, 0.0000000000000000000, 0.0000000000000000000 ) ) ;
#1327 = CARTESIAN_POINT ( 'NONE',  ( 1.465000000000000100, -0.4600000000000000200, 1.575000000000000000 ) ) ;
#1328 = DIRECTION ( 'NONE',  ( 1.000000000000000000, 0.0000000000000000000, -0.0000000000000000000 ) ) ;
#1329 = ORIENTED_EDGE ( 'NONE', *, *, #832, .F. ) ;
#1330 = DIRECTION ( 'NONE',  ( 0.0000000000000000000, 0.0000000000000000000, -1.000000000000000000 ) ) ;
#1331 = LINE ( 'NONE', #403, #481 ) ;
#1332 = ORIENTED_EDGE ( 'NONE', *, *, #651, .T. ) ;
#1333 = FACE_OUTER_BOUND ( 'NONE', #985, .T. ) ;
#1334 = LINE ( 'NONE', #154, #518 ) ;
#1335 = ORIENTED_EDGE ( 'NONE', *, *, #392, .T. ) ;
#1336 = EDGE_CURVE ( 'NONE', #999, #501, #105, .T. ) ;
#1337 = EDGE_CURVE ( 'NONE', #30, #268, #375, .T. ) ;
#1338 = ORIENTED_EDGE ( 'NONE', *, *, #771, .F. ) ;
#1339 = VECTOR ( 'NONE', #153, 1000.000000000000000 ) ;
#1340 = CARTESIAN_POINT ( 'NONE',  ( -3.064999999999999900, -0.4400000000000000000, -1.574999999999999700 ) ) ;
#1341 = ORIENTED_EDGE ( 'NONE', *, *, #1185, .F. ) ;
#1342 = EDGE_LOOP ( 'NONE', ( #1259, #667, #163, #802 ) ) ;
#1343 = VECTOR ( 'NONE', #723, 1000.000000000000000 ) ;
#1344 = EDGE_LOOP ( 'NONE', ( #1142, #875, #521, #51 ) ) ;
#1345 = AXIS2_PLACEMENT_3D ( 'NONE', #609, #615, #722 ) ;
#1346 = ORIENTED_EDGE ( 'NONE', *, *, #813, .T. ) ;
#1347 = EDGE_CURVE ( 'NONE', #194, #417, #624, .T. ) ;
#1348 = ADVANCED_FACE ( 'NONE', ( #1153 ), #42, .T. ) ;
#1349 = DIRECTION ( 'NONE',  ( 0.0000000000000000000, 0.0000000000000000000, 1.000000000000000000 ) ) ;
#1350 = CARTESIAN_POINT ( 'NONE',  ( -2.890000000000000100, 0.4400000000000000000, 1.575000000000000000 ) ) ;
#1351 = ADVANCED_FACE ( 'NONE', ( #346 ), #422, .F. ) ;
#1352 = DIRECTION ( 'NONE',  ( 1.000000000000000000, 0.0000000000000000000, 0.0000000000000000000 ) ) ;
#1353 = CARTESIAN_POINT ( 'NONE',  ( -2.575000000000000200, 0.4400000000000000000, -1.415000000000000000 ) ) ;
#1354 = CARTESIAN_POINT ( 'NONE',  ( 2.575000000000000200, 0.5500000000000000400, -1.600000000000000100 ) ) ;
#1355 = ORIENTED_EDGE ( 'NONE', *, *, #485, .F. ) ;
#1356 = VECTOR ( 'NONE', #1248, 1000.000000000000000 ) ;
#1357 = ADVANCED_FACE ( 'NONE', ( #872 ), #427, .F. ) ;
#1358 = EDGE_LOOP ( 'NONE', ( #1123, #759, #63, #165 ) ) ;
#1359 = ORIENTED_EDGE ( 'NONE', *, *, #769, .T. ) ;
#1360 = CIRCLE ( 'NONE', #640, 0.08999999999999980200 ) ;
#1361 = DIRECTION ( 'NONE',  ( 0.0000000000000000000, 1.000000000000000000, -0.0000000000000000000 ) ) ;
ENDSEC;
END-ISO-10303-21;
