M48
; DRILL file {KiCad 9.0.6} date 2026-06-05T09:14:28+0200
; FORMAT={-:-/ absolute / metric / decimal}
; #@! TF.CreationDate,2026-06-05T09:14:28+02:00
; #@! TF.GenerationSoftware,Kicad,Pcbnew,9.0.6
; #@! TF.FileFunction,Plated,1,2,PTH
FMAT,2
METRIC
; #@! TA.AperFunction,Plated,PTH,ViaDrill
T1C0.400
; #@! TA.AperFunction,Plated,PTH,ComponentDrill
T2C1.020
; #@! TA.AperFunction,Plated,PTH,ComponentDrill
T3C1.450
; #@! TA.AperFunction,Plated,PTH,ComponentDrill
T4C1.650
; #@! TA.AperFunction,Plated,PTH,ComponentDrill
T5C3.200
%
G90
G05
T1
X67.0Y-97.0
X69.88Y-77.32
X71.0Y-93.0
X71.0Y-101.0
X75.0Y-97.0
X75.59Y-77.3
X75.75Y-74.58
X79.6Y-64.25
X79.89Y-76.73
X81.7Y-80.08
X84.36Y-85.11
X85.4Y-64.2
X87.26Y-87.31
X90.06Y-85.11
X92.0Y-59.8
X98.6Y-64.4
X153.12Y-33.85
X158.52Y-30.7
X168.46Y-30.8
X171.5Y-117.2
X176.0Y-120.5
X177.87Y-30.77
X182.12Y-34.25
X188.0Y-120.5
X200.0Y-120.5
X201.0Y-65.0
X205.0Y-61.0
X205.0Y-69.0
X205.0Y-117.0
X209.0Y-65.0
T2
X71.0Y-97.0
X71.59Y-82.55
X72.97Y-65.42
X91.26Y-77.81
X100.4Y-75.9
X150.6Y-91.8
X163.4Y-91.8
X186.1Y-58.33
X186.1Y-68.33
X205.0Y-65.0
X205.25Y-77.61
T3
X46.025Y-71.11
X46.025Y-76.19
T4
X109.8Y-66.7
X109.8Y-71.4
X109.8Y-76.1
X109.8Y-80.8
X114.6Y-66.7
X114.6Y-71.4
X114.6Y-76.1
X114.6Y-80.8
X163.7Y-47.0
X163.7Y-51.8
X168.4Y-47.0
X168.4Y-51.8
X173.1Y-47.0
X173.1Y-51.8
X177.8Y-47.0
X177.8Y-51.8
X178.75Y-84.2
X178.75Y-89.0
X183.45Y-84.2
X183.45Y-89.0
X188.15Y-84.2
X188.15Y-89.0
X192.85Y-84.2
X192.85Y-89.0
T5
X53.0Y-29.0
X53.0Y-135.0
X133.5Y-29.0
X133.5Y-135.0
X168.0Y-104.0
X168.0Y-127.0
X208.0Y-104.0
X208.0Y-127.0
X214.0Y-29.0
X214.0Y-135.0
M30
