%TF.GenerationSoftware,KiCad,Pcbnew,9.0.6*%
%TF.CreationDate,2026-06-05T09:14:21+02:00*%
%TF.ProjectId,TP_Buck_LT1959,54505f42-7563-46b5-9f4c-54313935392e,V2*%
%TF.SameCoordinates,Original*%
%TF.FileFunction,Soldermask,Bot*%
%TF.FilePolarity,Negative*%
%FSLAX46Y46*%
G04 Gerber Fmt 4.6, Leading zero omitted, Abs format (unit mm)*
G04 Created by KiCad (PCBNEW 9.0.6) date 2026-06-05 09:14:21*
%MOMM*%
%LPD*%
G01*
G04 APERTURE LIST*
%ADD10C,0.100000*%
%ADD11C,1.600000*%
%ADD12R,2.475000X2.475000*%
%ADD13C,2.475000*%
%ADD14C,5.700000*%
%ADD15R,2.175000X2.175000*%
%ADD16C,2.175000*%
G04 APERTURE END LIST*
D10*
X81280000Y-128270000D02*
X153670000Y-128270000D01*
X153670000Y-146050000D01*
X81280000Y-146050000D01*
X81280000Y-128270000D01*
G36*
X81280000Y-128270000D02*
G01*
X153670000Y-128270000D01*
X153670000Y-146050000D01*
X81280000Y-146050000D01*
X81280000Y-128270000D01*
G37*
D11*
%TO.C,TP5*%
X91260000Y-77810000D03*
%TD*%
D12*
%TO.C,S2*%
X178750000Y-84200000D03*
D13*
X183450000Y-84200000D03*
X188150000Y-84200000D03*
X192850000Y-84200000D03*
X178750000Y-89000000D03*
X183450000Y-89000000D03*
X188150000Y-89000000D03*
X192850000Y-89000000D03*
%TD*%
D14*
%TO.C,H3*%
X53000000Y-135000000D03*
%TD*%
D11*
%TO.C,TP3*%
X72970000Y-65420000D03*
%TD*%
%TO.C,TP4*%
X71590000Y-82550000D03*
%TD*%
D14*
%TO.C,H6*%
X168000000Y-127000000D03*
%TD*%
%TO.C,H1*%
X53000000Y-29000000D03*
%TD*%
D11*
%TO.C,TP6*%
X71000000Y-97000000D03*
%TD*%
D15*
%TO.C,J1*%
X46025000Y-76190000D03*
D16*
X46025000Y-71110000D03*
%TD*%
D11*
%TO.C,TP9*%
X163400000Y-91800000D03*
%TD*%
D14*
%TO.C,H5*%
X168000000Y-104000000D03*
%TD*%
%TO.C,H4*%
X214000000Y-135000000D03*
%TD*%
D11*
%TO.C,TP11*%
X205000000Y-65000000D03*
%TD*%
%TO.C,TP10*%
X205250000Y-77610000D03*
%TD*%
%TO.C,TP8*%
X150600000Y-91800000D03*
%TD*%
D14*
%TO.C,H9*%
X133500000Y-29000000D03*
%TD*%
%TO.C,H7*%
X208000000Y-104000000D03*
%TD*%
%TO.C,H8*%
X208000000Y-127000000D03*
%TD*%
D11*
%TO.C,TP7*%
X100400000Y-75900000D03*
%TD*%
D12*
%TO.C,S3*%
X109800000Y-80800000D03*
D13*
X109800000Y-76100000D03*
X109800000Y-71400000D03*
X109800000Y-66700000D03*
X114600000Y-80800000D03*
X114600000Y-76100000D03*
X114600000Y-71400000D03*
X114600000Y-66700000D03*
%TD*%
D14*
%TO.C,H2*%
X214000000Y-29000000D03*
%TD*%
%TO.C,H10*%
X133500000Y-135000000D03*
%TD*%
D11*
%TO.C,TP2*%
X186100000Y-58330000D03*
%TD*%
D12*
%TO.C,S1*%
X177800000Y-51800000D03*
D13*
X173100000Y-51800000D03*
X168400000Y-51800000D03*
X163700000Y-51800000D03*
X177800000Y-47000000D03*
X173100000Y-47000000D03*
X168400000Y-47000000D03*
X163700000Y-47000000D03*
%TD*%
D11*
%TO.C,TP1*%
X186100000Y-68330000D03*
%TD*%
M02*
