%TF.GenerationSoftware,KiCad,Pcbnew,9.0.6*%
%TF.CreationDate,2026-06-05T09:14:21+02:00*%
%TF.ProjectId,TP_Buck_LT1959,54505f42-7563-46b5-9f4c-54313935392e,V2*%
%TF.SameCoordinates,Original*%
%TF.FileFunction,Paste,Top*%
%TF.FilePolarity,Positive*%
%FSLAX46Y46*%
G04 Gerber Fmt 4.6, Leading zero omitted, Abs format (unit mm)*
G04 Created by KiCad (PCBNEW 9.0.6) date 2026-06-05 09:14:21*
%MOMM*%
%LPD*%
G01*
G04 APERTURE LIST*
G04 Aperture macros list*
%AMRoundRect*
0 Rectangle with rounded corners*
0 $1 Rounding radius*
0 $2 $3 $4 $5 $6 $7 $8 $9 X,Y pos of 4 corners*
0 Add a 4 corners polygon primitive as box body*
4,1,4,$2,$3,$4,$5,$6,$7,$8,$9,$2,$3,0*
0 Add four circle primitives for the rounded corners*
1,1,$1+$1,$2,$3*
1,1,$1+$1,$4,$5*
1,1,$1+$1,$6,$7*
1,1,$1+$1,$8,$9*
0 Add four rect primitives between the rounded corners*
20,1,$1+$1,$2,$3,$4,$5,0*
20,1,$1+$1,$4,$5,$6,$7,0*
20,1,$1+$1,$6,$7,$8,$9,0*
20,1,$1+$1,$8,$9,$2,$3,0*%
G04 Aperture macros list end*
%ADD10R,3.400000X2.400000*%
%ADD11R,3.810000X2.794000*%
%ADD12RoundRect,0.250000X0.625000X-0.312500X0.625000X0.312500X-0.625000X0.312500X-0.625000X-0.312500X0*%
%ADD13R,1.520000X1.270000*%
%ADD14R,3.050000X2.540000*%
%ADD15RoundRect,0.250000X-0.625000X0.312500X-0.625000X-0.312500X0.625000X-0.312500X0.625000X0.312500X0*%
%ADD16RoundRect,0.250000X-0.250000X-0.475000X0.250000X-0.475000X0.250000X0.475000X-0.250000X0.475000X0*%
%ADD17R,1.270000X1.520000*%
%ADD18R,2.540000X3.050000*%
%ADD19RoundRect,0.250000X-0.262500X-0.450000X0.262500X-0.450000X0.262500X0.450000X-0.262500X0.450000X0*%
%ADD20RoundRect,0.250000X0.250000X0.475000X-0.250000X0.475000X-0.250000X-0.475000X0.250000X-0.475000X0*%
%ADD21RoundRect,0.150000X-0.200000X0.150000X-0.200000X-0.150000X0.200000X-0.150000X0.200000X0.150000X0*%
%ADD22RoundRect,0.250000X-0.475000X0.250000X-0.475000X-0.250000X0.475000X-0.250000X0.475000X0.250000X0*%
%ADD23RoundRect,0.225000X0.225000X0.375000X-0.225000X0.375000X-0.225000X-0.375000X0.225000X-0.375000X0*%
%ADD24RoundRect,0.250000X-0.312500X-0.625000X0.312500X-0.625000X0.312500X0.625000X-0.312500X0.625000X0*%
%ADD25RoundRect,0.250000X0.475000X-0.250000X0.475000X0.250000X-0.475000X0.250000X-0.475000X-0.250000X0*%
%ADD26R,2.900000X5.400000*%
%ADD27RoundRect,0.250000X-0.900000X1.500000X-0.900000X-1.500000X0.900000X-1.500000X0.900000X1.500000X0*%
%ADD28RoundRect,0.250000X0.312500X0.625000X-0.312500X0.625000X-0.312500X-0.625000X0.312500X-0.625000X0*%
%ADD29RoundRect,0.250000X0.450000X-0.262500X0.450000X0.262500X-0.450000X0.262500X-0.450000X-0.262500X0*%
%ADD30RoundRect,0.150000X-0.825000X-0.150000X0.825000X-0.150000X0.825000X0.150000X-0.825000X0.150000X0*%
%ADD31R,1.780000X3.150000*%
G04 APERTURE END LIST*
D10*
%TO.C,R5*%
X176000000Y-117000000D03*
X176000000Y-112200000D03*
%TD*%
D11*
%TO.C,D2*%
X91800000Y-71468500D03*
X91800000Y-64331500D03*
%TD*%
D12*
%TO.C,R4*%
X87260000Y-80672500D03*
X87260000Y-77747500D03*
%TD*%
D13*
%TO.C,T1*%
X171955000Y-65040000D03*
X171955000Y-63190000D03*
X171955000Y-61340000D03*
X164845000Y-61340000D03*
X164845000Y-63190000D03*
X164845000Y-65040000D03*
D14*
X168400000Y-65805000D03*
X168400000Y-60575000D03*
%TD*%
D10*
%TO.C,R6*%
X188000000Y-116800000D03*
X188000000Y-112000000D03*
%TD*%
D15*
%TO.C,R2*%
X76990000Y-82600000D03*
X76990000Y-85525000D03*
%TD*%
D16*
%TO.C,C3*%
X82850000Y-69000000D03*
X84750000Y-69000000D03*
%TD*%
D17*
%TO.C,T2*%
X154950000Y-75055000D03*
X156800000Y-75055000D03*
X158650000Y-75055000D03*
X158650000Y-67945000D03*
X156800000Y-67945000D03*
X154950000Y-67945000D03*
D18*
X154185000Y-71500000D03*
X159415000Y-71500000D03*
%TD*%
D19*
%TO.C,R8*%
X155887500Y-81600000D03*
X157712500Y-81600000D03*
%TD*%
D20*
%TO.C,C8*%
X157750000Y-84200000D03*
X155850000Y-84200000D03*
%TD*%
D21*
%TO.C,D1*%
X77100000Y-72600000D03*
X77100000Y-71200000D03*
%TD*%
D22*
%TO.C,C2*%
X180045000Y-62290000D03*
X180045000Y-64190000D03*
%TD*%
D23*
%TO.C,D5*%
X56385000Y-71130000D03*
X53085000Y-71130000D03*
%TD*%
D24*
%TO.C,R9*%
X58585000Y-71120000D03*
X61510000Y-71120000D03*
%TD*%
D25*
%TO.C,C1*%
X79900000Y-68750000D03*
X79900000Y-66850000D03*
%TD*%
%TO.C,C5*%
X168420000Y-36000000D03*
X168420000Y-34100000D03*
%TD*%
D10*
%TO.C,R7*%
X200000000Y-117000000D03*
X200000000Y-112200000D03*
%TD*%
D25*
%TO.C,C4*%
X158520000Y-36000000D03*
X158520000Y-34100000D03*
%TD*%
D26*
%TO.C,L2*%
X128850000Y-71500000D03*
X138750000Y-71500000D03*
%TD*%
D27*
%TO.C,D4*%
X72750000Y-71840000D03*
X72750000Y-77240000D03*
%TD*%
D28*
%TO.C,R3*%
X79932500Y-80040000D03*
X77007500Y-80040000D03*
%TD*%
D29*
%TO.C,R1*%
X176845000Y-64152500D03*
X176845000Y-62327500D03*
%TD*%
D22*
%TO.C,C7*%
X87260000Y-83160000D03*
X87260000Y-85060000D03*
%TD*%
D26*
%TO.C,L1*%
X128850000Y-86400000D03*
X138750000Y-86400000D03*
%TD*%
%TO.C,L3*%
X128850000Y-56600000D03*
X138750000Y-56600000D03*
%TD*%
D30*
%TO.C,IC1*%
X79925000Y-71295000D03*
X79925000Y-72565000D03*
X79925000Y-73835000D03*
X79925000Y-75105000D03*
X84875000Y-75105000D03*
X84875000Y-73835000D03*
X84875000Y-72565000D03*
X84875000Y-71295000D03*
%TD*%
D25*
%TO.C,C6*%
X177800000Y-35950000D03*
X177800000Y-34050000D03*
%TD*%
D31*
%TO.C,F1*%
X63715000Y-71130000D03*
X68945000Y-71130000D03*
%TD*%
M02*
